<?xml version="1.0" encoding="utf-8"?><svg fill="none" viewBox="0 0 1920 1080" xmlns="http://www.w3.org/2000/svg"><defs /><g transform="matrix(1,0,0,1,960,540)" opacity="0.5" id="Color 1"><g id="Rectángulo 1" transform="matrix(1,0,0,1,8,12)"><path fill="#a8dadc" fill-opacity="1" d="M972,-468L972,468L-972,468L-972,-468L972,-468Z" /></g></g><g transform="matrix(4.18,0,0,4.18,-49.197,52.575)" id="Niebla Mate"><g id="Grupo 7" transform="matrix(1,0,0,1,241.435,32.087)"><path fill="#ff0601" fill-opacity="1" d="M114.997,14.197L-119.542,13.958C-127.322,13.958,-133.629,7.651,-133.629,-0.129C-133.629,-7.909,-127.322,-14.216,-119.542,-14.216L114.997,-13.977C122.777,-13.977,129.084,-7.67,129.084,0.11C129.084,7.89,122.777,14.197,114.997,14.197Z" /></g><g id="Grupo 3" transform="matrix(1,0,0,1,233.087,60.261)"><path fill="#ff0601" fill-opacity="1" d="M81.391,0L81.391,0C81.391,-7.78,87.699,-14.087,95.478,-14.087L-6.216,-16.873L-95.538,-14.237C-87.758,-14.237,-81.391,-7.78,-81.391,0C-81.391,7.78,-87.728,14.087,-95.508,14.087L-1.216,18.376L95.538,14.237C87.759,14.237,81.391,7.78,81.391,0Z" /></g><g id="Grupo 4" transform="matrix(1,0,0,1,241.435,88.435)"><path fill="#ff0601" fill-opacity="1" d="M207.581,14.177L-207.581,13.958C-215.361,13.958,-221.668,7.651,-221.668,-0.129C-221.668,-7.909,-215.361,-14.216,-207.581,-14.216L207.581,-13.997C215.361,-13.997,221.668,-7.69,221.668,0.09C221.668,7.87,215.361,14.177,207.581,14.177Z" /></g><g id="Grupo 2" transform="matrix(1,0,0,1,233.087,116.609)"><path fill="#ff0601" fill-opacity="1" d="M156.032,-0.129L156.032,-0.129C156.032,-7.909,162.339,-14.216,170.118,-14.216L-0.982,-20.438L-183.486,-14.219C-175.706,-14.219,-169.429,-7.642,-169.429,0.138C-169.429,7.918,-175.736,14.225,-183.516,14.225L-2.717,25.323L170.118,13.958C162.339,13.958,156.032,7.651,156.032,-0.129Z" /></g><g id="Grupo 6" transform="matrix(1,0,0,1,241.435,144.782)"><path fill="#ff0601" fill-opacity="1" d="M172.174,14.087L-192.27,14.087C-200.05,14.087,-206.357,7.78,-206.357,0C-206.357,-7.78,-200.05,-14.087,-192.27,-14.087L172.174,-14.087C179.954,-14.087,186.261,-7.78,186.261,0C186.261,7.78,179.954,14.087,172.174,14.087Z" /></g><g id="Grupo 1" transform="matrix(1,0,0,1,233.087,172.957)"><path fill="#ff0601" fill-opacity="1" d="M81.391,0L81.391,0C81.391,-7.78,87.699,-14.087,95.478,-14.087L7.451,-21.982L-95.478,-14.087C-87.698,-14.087,-81.391,-7.78,-81.391,0C-81.391,7.78,-87.698,14.087,-95.478,14.087L3.802,22.939L95.478,14.087C87.699,14.087,81.391,7.78,81.391,0Z" /></g><g id="Grupo 5" transform="matrix(1,0,0,1,241.435,201.13)"><path fill="#ff0601" fill-opacity="1" d="M89.399,13.985L-105.129,14.077C-112.909,14.077,-119.216,7.77,-119.216,-0.01C-119.216,-7.79,-112.909,-14.097,-105.129,-14.097L89.399,-14.189C97.179,-14.189,103.486,-7.882,103.486,-0.102C103.486,7.678,97.179,13.985,89.399,13.985Z" /></g></g><g transform="matrix(1,0,0,1,960,540)" opacity="0.3" id="Color 2"><g id="Rectángulo 1" transform="matrix(1,0,0,1,8,12)"><path fill="#a8dadc" fill-opacity="1" d="M972,-468L972,468L-972,468L-972,-468L972,-468Z" /></g></g><g transform="matrix(-3.23,0,0,-3.23,1647.693,1069.43)" id="Niebla Matte"><g id="Grupo 7" transform="matrix(1,0,0,1,241.435,32.087)"><path fill="#ff0601" fill-opacity="1" d="M114.997,14.197L-119.542,13.958C-127.322,13.958,-133.629,7.651,-133.629,-0.129C-133.629,-7.909,-127.322,-14.216,-119.542,-14.216L114.997,-13.977C122.777,-13.977,129.084,-7.67,129.084,0.11C129.084,7.89,122.777,14.197,114.997,14.197Z" /></g><g id="Grupo 3" transform="matrix(1,0,0,1,233.087,60.261)"><path fill="#ff0601" fill-opacity="1" d="M81.391,0L81.391,0C81.391,-7.78,87.699,-14.087,95.478,-14.087L-6.216,-16.873L-95.538,-14.237C-87.758,-14.237,-81.391,-7.78,-81.391,0C-81.391,7.78,-87.728,14.087,-95.508,14.087L-1.216,18.376L95.538,14.237C87.759,14.237,81.391,7.78,81.391,0Z" /></g><g id="Grupo 4" transform="matrix(1,0,0,1,241.435,88.435)"><path fill="#ff0601" fill-opacity="1" d="M207.581,14.177L-207.581,13.958C-215.361,13.958,-221.668,7.651,-221.668,-0.129C-221.668,-7.909,-215.361,-14.216,-207.581,-14.216L207.581,-13.997C215.361,-13.997,221.668,-7.69,221.668,0.09C221.668,7.87,215.361,14.177,207.581,14.177Z" /></g><g id="Grupo 2" transform="matrix(1,0,0,1,233.087,116.609)"><path fill="#ff0601" fill-opacity="1" d="M156.032,-0.129L156.032,-0.129C156.032,-7.909,162.339,-14.216,170.118,-14.216L-0.982,-20.438L-183.486,-14.219C-175.706,-14.219,-169.429,-7.642,-169.429,0.138C-169.429,7.918,-175.736,14.225,-183.516,14.225L-2.717,25.323L170.118,13.958C162.339,13.958,156.032,7.651,156.032,-0.129Z" /></g><g id="Grupo 6" transform="matrix(1,0,0,1,241.435,144.782)"><path fill="#ff0601" fill-opacity="1" d="M172.174,14.087L-192.27,14.087C-200.05,14.087,-206.357,7.78,-206.357,0C-206.357,-7.78,-200.05,-14.087,-192.27,-14.087L172.174,-14.087C179.954,-14.087,186.261,-7.78,186.261,0C186.261,7.78,179.954,14.087,172.174,14.087Z" /></g><g id="Grupo 1" transform="matrix(1,0,0,1,233.087,172.957)"><path fill="#ff0601" fill-opacity="1" d="M81.391,0L81.391,0C81.391,-7.78,87.699,-14.087,95.478,-14.087L7.451,-21.982L-95.478,-14.087C-87.698,-14.087,-81.391,-7.78,-81.391,0C-81.391,7.78,-87.698,14.087,-95.478,14.087L3.802,22.939L95.478,14.087C87.699,14.087,81.391,7.78,81.391,0Z" /></g><g id="Grupo 5" transform="matrix(1,0,0,1,241.435,201.13)"><path fill="#ff0601" fill-opacity="1" d="M89.399,13.985L-105.129,14.077C-112.909,14.077,-119.216,7.77,-119.216,-0.01C-119.216,-7.79,-112.909,-14.097,-105.129,-14.097L89.399,-14.189C97.179,-14.189,103.486,-7.882,103.486,-0.102C103.486,7.678,97.179,13.985,89.399,13.985Z" /></g></g><g transform="matrix(1,0,0,1,1200,324)" opacity="0.3" id="Color 3"><g id="Rectángulo 1" transform="matrix(1,0,0,1,8,12)"><path fill="#a8dadc" fill-opacity="1" d="M972,-468L972,468L-972,468L-972,-468L972,-468Z" /></g></g><g transform="matrix(-3.23,0,0,3.23,1887.693,107.3)" id="Niebla Matte 2"><g id="Grupo 7" transform="matrix(1,0,0,1,241.435,32.087)"><path fill="#ff0601" fill-opacity="1" d="M114.997,14.197L-119.542,13.958C-127.322,13.958,-133.629,7.651,-133.629,-0.129C-133.629,-7.909,-127.322,-14.216,-119.542,-14.216L114.997,-13.977C122.777,-13.977,129.084,-7.67,129.084,0.11C129.084,7.89,122.777,14.197,114.997,14.197Z" /></g><g id="Grupo 3" transform="matrix(1,0,0,1,233.087,60.261)"><path fill="#ff0601" fill-opacity="1" d="M81.391,0L81.391,0C81.391,-7.78,87.699,-14.087,95.478,-14.087L-6.216,-16.873L-95.538,-14.237C-87.758,-14.237,-81.391,-7.78,-81.391,0C-81.391,7.78,-87.728,14.087,-95.508,14.087L-1.216,18.376L95.538,14.237C87.759,14.237,81.391,7.78,81.391,0Z" /></g><g id="Grupo 4" transform="matrix(1,0,0,1,241.435,88.435)"><path fill="#ff0601" fill-opacity="1" d="M207.581,14.177L-207.581,13.958C-215.361,13.958,-221.668,7.651,-221.668,-0.129C-221.668,-7.909,-215.361,-14.216,-207.581,-14.216L207.581,-13.997C215.361,-13.997,221.668,-7.69,221.668,0.09C221.668,7.87,215.361,14.177,207.581,14.177Z" /></g><g id="Grupo 2" transform="matrix(1,0,0,1,233.087,116.609)"><path fill="#ff0601" fill-opacity="1" d="M156.032,-0.129L156.032,-0.129C156.032,-7.909,162.339,-14.216,170.118,-14.216L-0.982,-20.438L-183.486,-14.219C-175.706,-14.219,-169.429,-7.642,-169.429,0.138C-169.429,7.918,-175.736,14.225,-183.516,14.225L-2.717,25.323L170.118,13.958C162.339,13.958,156.032,7.651,156.032,-0.129Z" /></g><g id="Grupo 6" transform="matrix(1,0,0,1,241.435,144.782)"><path fill="#ff0601" fill-opacity="1" d="M172.174,14.087L-192.27,14.087C-200.05,14.087,-206.357,7.78,-206.357,0C-206.357,-7.78,-200.05,-14.087,-192.27,-14.087L172.174,-14.087C179.954,-14.087,186.261,-7.78,186.261,0C186.261,7.78,179.954,14.087,172.174,14.087Z" /></g><g id="Grupo 1" transform="matrix(1,0,0,1,233.087,172.957)"><path fill="#ff0601" fill-opacity="1" d="M81.391,0L81.391,0C81.391,-7.78,87.699,-14.087,95.478,-14.087L7.451,-21.982L-95.478,-14.087C-87.698,-14.087,-81.391,-7.78,-81.391,0C-81.391,7.78,-87.698,14.087,-95.478,14.087L3.802,22.939L95.478,14.087C87.699,14.087,81.391,7.78,81.391,0Z" /></g><g id="Grupo 5" transform="matrix(1,0,0,1,241.435,201.13)"><path fill="#ff0601" fill-opacity="1" d="M89.399,13.985L-105.129,14.077C-112.909,14.077,-119.216,7.77,-119.216,-0.01C-119.216,-7.79,-112.909,-14.097,-105.129,-14.097L89.399,-14.189C97.179,-14.189,103.486,-7.882,103.486,-0.102C103.486,7.678,97.179,13.985,89.399,13.985Z" /></g></g></svg>