<?xml version="1.0" encoding="utf-8"?><svg fill="none" viewBox="0 0 512 512" xmlns="http://www.w3.org/2000/svg"><defs /><g transform="matrix(1,0,0,1,256,188)" id="blow-1"><path d="M93.157,-27.714C100.435,-35.287,110.667,-40,122,-40C144.091,-40,162,-22.091,162,0C162,22.091,144.091,40,122,40L102,40L-162,40" stroke-linejoin="miter" stroke-linecap="round" stroke-width="18" stroke-opacity="1" stroke="#e2e8f0" /></g><g transform="matrix(1,0,0,1,198,324)" id="blow-2"><path d="M35.157,27.714C42.435,35.287,52.667,40,64,40C86.091,40,104,22.091,104,0C104,-22.091,86.091,-40,64,-40L44,-40L-104,-40" stroke-linejoin="miter" stroke-linecap="round" stroke-width="18" stroke-opacity="1" stroke="#e2e8f0" /></g></svg>