<svg xmlns="http://www.w3.org/2000/svg" viewBox="0 0 24 18" role="img" aria-label="Flag of China">
  <rect width="24" height="18" rx="2" fill="#DE2910"/>
  <path d="M5 3.2 5.8 5.6 8.4 5.6 6.3 7.1 7.1 9.5 5 8 2.9 9.5 3.7 7.1 1.6 5.6 4.2 5.6Z" fill="#FFDE00"/>
  <path d="M10.8 2.7 11.4 4 12.9 4 11.7 4.9 12.1 6.4 10.8 5.6 9.5 6.4 9.9 4.9 8.7 4 10.2 4Z" fill="#FFDE00"/>
  <path d="M13.2 5.2 13.7 6.1 14.8 6.1 13.9 6.8 14.2 7.9 13.2 7.3 12.2 7.9 12.5 6.8 11.6 6.1 12.7 6.1Z" fill="#FFDE00"/>
  <path d="M13.4 8.3 13.9 9.1 14.9 9.1 14.1 9.7 14.4 10.8 13.4 10.2 12.4 10.8 12.7 9.7 11.9 9.1 12.9 9.1Z" fill="#FFDE00"/>
  <path d="M10.8 10.7 11.4 11.8 12.7 11.8 11.7 12.5 12.1 13.8 10.8 13 9.5 13.8 9.9 12.5 8.9 11.8 10.2 11.8Z" fill="#FFDE00"/>
</svg>
