<?xml version="1.0" encoding="utf-8"?><svg fill="none" viewBox="0 0 256 256" xmlns="http://www.w3.org/2000/svg"><defs /><g transform="matrix(1,0,0,1,128,128)" id="bond"><g id="bond"><rect height="256" width="256" y="0" x="0" /></g></g><g opacity="0.5" id="cloud"><g transform="translate(195.37,81.5)"><animateTransform repeatCount="indefinite" type="translate" attributeName="transform" dur="3s" begin="0s" calcMode="spline" values="195.37 81.5; 199.37 81.5; 195.37 81.5; 199.37 81.5; 195.37 81.5" keyTimes="0; 0.194; 0.444; 0.694; 1" keySplines="0.333 0 0.833 0.833; 0.333 0 0.833 0.833; 0.333 0 0.833 0.833; 0.333 0 0.833 0.833" fill="freeze" /><g transform="scale(1,1) translate(-46.37,-28.5)"><g id="Group 1"><path fill="#e8e8e8" fill-opacity="1" d="M56.11,57L20.09,57C9,57,0,48.03,0,36.97C0,25.91,9,16.95,20.09,16.95C23.44,16.95,26.6,17.76,29.38,19.21C33.24,8.03,43.89,0,56.41,0C72.21,0,85.01,12.76,85.01,28.5C85.01,28.82,85,29.14,84.99,29.46C89.6,31.93,92.74,36.78,92.74,42.36C92.74,50.45,86.16,57,78.05,57L56.41,57C56.37,57,56.11,57,56.11,57L56.41,57L56.11,57Z" /></g></g></g></g><g id="cloud"><g transform="translate(117.135,125.78)"><animateTransform repeatCount="indefinite" type="translate" attributeName="transform" dur="3s" begin="0s" calcMode="spline" values="117.135 125.78; 123.135 125.78; 117.135 125.78; 121.135 125.78; 117.135 125.78" keyTimes="0; 0.25; 0.5; 0.75; 1" keySplines="0 0 1 1; 0.333 0 0.833 0.833; 0.333 0 0.833 0.833; 0.333 0 0.833 0.833" fill="freeze" /><g transform="scale(1,1) translate(-102.135,-62.78)"><g id="Group 1"><path fill="#e8e8e8" fill-opacity="1" d="M123.61,125.56L44.26,125.56C19.82,125.56,0,105.81,0,81.44C0,57.08,19.82,37.33,44.26,37.33C51.64,37.33,58.59,39.13,64.71,42.31C73.22,17.69,96.67,0,124.27,0C159.05,0,187.25,28.11,187.25,62.78C187.25,63.49,187.24,64.2,187.21,64.9C197.37,70.34,204.27,81.03,204.27,93.32C204.27,111.12,189.79,125.56,171.93,125.56L124.27,125.56C124.17,125.56,123.61,125.56,123.61,125.56L124.27,125.56L123.61,125.56Z" /></g></g></g></g></svg>