<?xml version="1.0" encoding="utf-8"?><svg fill="none" viewBox="0 0 256 256" xmlns="http://www.w3.org/2000/svg"><defs /><g transform="matrix(1,0,0,1,127,128)" id="bond"><g id="bond"><rect height="256" width="256" y="0" x="0" /></g></g><g transform="matrix(1,0,0,1,129.275,127.375)" id="sun"><g id="sun"><ellipse ry="84.925" rx="85.295" cy="0" cx="0" fill="#ffc930" fill-opacity="1" /></g></g><g id="cloud"><g transform="translate(182.765,116.19)"><animateTransform repeatCount="indefinite" type="translate" attributeName="transform" dur="3s" begin="0s" calcMode="spline" values="182.765 116.19; 186.765 116.19; 182.765 116.19; 186.765 116.19; 182.765 116.19" keyTimes="0; 0.278; 0.528; 0.778; 1" keySplines="0.333 0 0.833 0.833; 0.333 0 0.833 0.833; 0.333 0 0.833 0.833; 0.333 0 0.833 0.833" fill="freeze" /><g transform="scale(1,1) translate(-60.235,-35.82)"><g id="Group 1"><path stroke-linejoin="miter" stroke-linecap="butt" stroke-width="7" stroke-opacity="1" stroke="#ffffff" fill="#e8e8e8" fill-opacity="1" d="M72.9,71.64L26.1,71.64C11.69,71.64,0,60.37,0,46.47C0,32.57,11.69,21.3,26.1,21.3C30.45,21.3,34.55,22.32,38.16,24.14C43.18,10.09,57.01,0,73.29,0C93.8,0,110.43,16.04,110.43,35.82C110.43,36.22,110.42,36.63,110.41,37.03C116.4,40.13,120.47,46.23,120.47,53.24C120.47,63.4,111.93,71.64,101.4,71.64L73.29,71.64C73.23,71.64,72.9,71.64,72.9,71.64L73.29,71.64L72.9,71.64Z" /></g></g></g></g><g id="cloud"><g transform="translate(50.49,183.99)"><animateTransform repeatCount="indefinite" type="translate" attributeName="transform" dur="3s" begin="0s" calcMode="spline" values="50.49 183.99; 53.49 183.99; 50.49 183.99; 53.49 183.99; 50.49 183.99" keyTimes="0; 0.222; 0.472; 0.722; 1" keySplines="0.333 0 0.833 0.833; 0.333 0 0.833 0.833; 0.333 0 0.833 0.833; 0.333 0 0.833 0.833" fill="freeze" /><g transform="scale(1,1) translate(-45.49,-27.05)"><g id="Group 1"><path stroke-linejoin="miter" stroke-linecap="butt" stroke-width="7" stroke-opacity="1" stroke="#ffffff" fill="#e8e8e8" fill-opacity="1" d="M55.05,54.1L19.71,54.1C8.83,54.1,0,45.59,0,35.09C0,24.59,8.83,16.08,19.71,16.08C23,16.08,26.1,16.86,28.82,18.23C32.61,7.62,43.06,0,55.35,0C70.84,0,83.4,12.11,83.4,27.05C83.4,27.36,83.39,27.66,83.38,27.96C87.9,30.31,90.98,34.91,90.98,40.21C90.98,47.88,84.53,54.1,76.57,54.1L55.35,54.1C55.3,54.1,55.05,54.1,55.05,54.1L55.35,54.1L55.05,54.1Z" /></g></g></g></g><g id="cloud"><g transform="translate(76.83,63.21)"><animateTransform repeatCount="indefinite" type="translate" attributeName="transform" dur="3s" begin="0s" calcMode="spline" values="76.83 63.21; 78.83 63.21; 76.83 63.21; 78.83 63.21; 76.83 63.21" keyTimes="0; 0.25; 0.5; 0.75; 1" keySplines="0.333 0 0.833 0.833; 0.333 0 0.833 0.833; 0.333 0 0.833 0.833; 0.333 0 0.833 0.833" fill="freeze" /><g transform="scale(1,1) translate(-45.49,-27.05)"><g id="Group 1"><path stroke-linejoin="miter" stroke-linecap="butt" stroke-width="7" stroke-opacity="1" stroke="#ffffff" fill="#e8e8e8" fill-opacity="1" d="M55.05,54.1L19.71,54.1C8.83,54.1,0,45.59,0,35.09C0,24.59,8.83,16.08,19.71,16.08C23,16.08,26.1,16.86,28.82,18.23C32.61,7.62,43.06,0,55.35,0C70.84,0,83.4,12.11,83.4,27.05C83.4,27.36,83.39,27.66,83.38,27.96C87.9,30.31,90.98,34.91,90.98,40.21C90.98,47.88,84.53,54.1,76.57,54.1L55.35,54.1C55.3,54.1,55.05,54.1,55.05,54.1L55.35,54.1L55.05,54.1Z" /></g></g></g></g></svg>