<?xml version="1.0" encoding="utf-8"?><svg fill="none" viewBox="0 0 400 400" xmlns="http://www.w3.org/2000/svg"><defs /><g id="Layer 2"><g transform="translate(180.178,132.225)"><animateTransform repeatCount="indefinite" type="translate" attributeName="transform" dur="2s" begin="0s" calcMode="spline" values="180.178 132.225; 177.178 118.225; 180.178 132.225" keyTimes="0; 0.5; 1" keySplines="0.333 0 0.667 1; 0.333 0 0.667 1" fill="freeze" /><g transform="scale(1,1) translate(0,0)"><g transform="matrix(1,0,0,1,19.822,67.775)" id="Null 1"><g id="Layer 8"><g transform="translate(0,52.312)"><animateTransform repeatCount="indefinite" type="translate" attributeName="transform" dur="2s" begin="0s" calcMode="spline" values="0 52.312; -161.438 343.562" keyTimes="0; 1" keySplines="0 0 1 1" fill="freeze" /><g transform="scale(1,1) translate(-200,-252.312)"><g id="Group 24" transform="matrix(1,0,0,1,27.662,365.332)"><path fill="#8abaff" fill-opacity="1" d="M-6.764,19.132L-6.765,19.132C-16.341,14.209,-17.388,0.929,-8.702,-5.434L11.724,-20.398C12.937,-21.287,14.644,-20.409,14.627,-18.905L14.342,6.413C14.221,17.18,2.812,24.055,-6.764,19.132Z" /></g><g id="Group 23" transform="matrix(1,0,0,1,137.744,365.332)"><path fill="#8abaff" fill-opacity="1" d="M-6.764,19.132L-6.765,19.132C-16.341,14.209,-17.388,0.929,-8.702,-5.434L11.724,-20.398C12.937,-21.287,14.644,-20.409,14.627,-18.905L14.342,6.413C14.221,17.18,2.812,24.055,-6.764,19.132Z" /></g><g id="Group 22" transform="matrix(1,0,0,1,235.954,368.03)"><path fill="#8abaff" fill-opacity="1" d="M-6.764,19.132L-6.765,19.132C-16.341,14.209,-17.388,0.929,-8.702,-5.434L11.724,-20.398C12.937,-21.287,14.644,-20.409,14.627,-18.905L14.342,6.413C14.221,17.18,2.812,24.055,-6.764,19.132Z" /></g><g id="Group 21" transform="matrix(1,0,0,1,291.535,288.706)"><path fill="#8abaff" fill-opacity="1" d="M-6.764,19.132L-6.765,19.132C-16.341,14.209,-17.388,0.929,-8.702,-5.434L11.724,-20.398C12.937,-21.287,14.644,-20.409,14.627,-18.905L14.342,6.413C14.221,17.18,2.812,24.055,-6.764,19.132Z" /></g><g id="Group 20" transform="matrix(1,0,0,1,188.504,298.959)"><path fill="#8abaff" fill-opacity="1" d="M-6.764,19.132L-6.765,19.132C-16.341,14.209,-17.388,0.929,-8.702,-5.434L11.724,-20.398C12.937,-21.287,14.644,-20.409,14.627,-18.905L14.342,6.413C14.221,17.18,2.812,24.055,-6.764,19.132Z" /></g><g id="Group 19" transform="matrix(1,0,0,1,78.961,282.231)"><path fill="#8abaff" fill-opacity="1" d="M-6.764,19.132L-6.765,19.132C-16.341,14.209,-17.388,0.929,-8.702,-5.434L11.724,-20.398C12.937,-21.287,14.644,-20.409,14.627,-18.905L14.342,6.413C14.221,17.18,2.812,24.055,-6.764,19.132Z" /></g><g id="Group 18" transform="matrix(1,0,0,1,-52.975,510.968)"><path fill="#8abaff" fill-opacity="1" d="M-6.764,19.132L-6.765,19.132C-16.341,14.209,-17.388,0.929,-8.702,-5.434L11.724,-20.398C12.937,-21.287,14.644,-20.409,14.627,-18.905L14.342,6.413C14.221,17.18,2.812,24.055,-6.764,19.132Z" /></g><g id="Group 17" transform="matrix(1,0,0,1,57.107,510.968)"><path fill="#8abaff" fill-opacity="1" d="M-6.764,19.132L-6.765,19.132C-16.341,14.209,-17.388,0.929,-8.702,-5.434L11.724,-20.398C12.937,-21.287,14.644,-20.409,14.627,-18.905L14.342,6.413C14.221,17.18,2.812,24.055,-6.764,19.132Z" /></g><g id="Group 16" transform="matrix(1,0,0,1,155.317,513.666)"><path fill="#8abaff" fill-opacity="1" d="M-6.764,19.132L-6.765,19.132C-16.341,14.209,-17.388,0.929,-8.702,-5.434L11.724,-20.398C12.937,-21.287,14.644,-20.409,14.627,-18.905L14.342,6.413C14.221,17.18,2.812,24.055,-6.764,19.132Z" /></g><g id="Group 15" transform="matrix(1,0,0,1,210.898,434.342)"><path fill="#8abaff" fill-opacity="1" d="M-6.764,19.132L-6.765,19.132C-16.341,14.209,-17.388,0.929,-8.702,-5.434L11.724,-20.398C12.937,-21.287,14.644,-20.409,14.627,-18.905L14.342,6.413C14.221,17.18,2.812,24.055,-6.764,19.132Z" /></g><g id="Group 14" transform="matrix(1,0,0,1,107.867,444.595)"><path fill="#8abaff" fill-opacity="1" d="M-6.764,19.132L-6.765,19.132C-16.341,14.209,-17.388,0.929,-8.702,-5.434L11.724,-20.398C12.937,-21.287,14.644,-20.409,14.627,-18.905L14.342,6.413C14.221,17.18,2.812,24.055,-6.764,19.132Z" /></g><g id="Group 13" transform="matrix(1,0,0,1,-1.676,427.867)"><path fill="#8abaff" fill-opacity="1" d="M-6.764,19.132L-6.765,19.132C-16.341,14.209,-17.388,0.929,-8.702,-5.434L11.724,-20.398C12.937,-21.287,14.644,-20.409,14.627,-18.905L14.342,6.413C14.221,17.18,2.812,24.055,-6.764,19.132Z" /></g><g id="Group 12" transform="matrix(1,0,0,1,189.102,74.06)"><path fill="#8abaff" fill-opacity="1" d="M-6.764,19.132L-6.765,19.132C-16.341,14.209,-17.388,0.929,-8.702,-5.434L11.724,-20.398C12.937,-21.287,14.644,-20.409,14.627,-18.905L14.342,6.413C14.221,17.18,2.812,24.055,-6.764,19.132Z" /></g><g id="Group 11" transform="matrix(1,0,0,1,299.184,74.06)"><path fill="#8abaff" fill-opacity="1" d="M-6.764,19.132L-6.765,19.132C-16.341,14.209,-17.388,0.929,-8.702,-5.434L11.724,-20.398C12.937,-21.287,14.644,-20.409,14.627,-18.905L14.342,6.413C14.221,17.18,2.812,24.055,-6.764,19.132Z" /></g><g id="Group 10" transform="matrix(1,0,0,1,397.395,76.758)"><path fill="#8abaff" fill-opacity="1" d="M-6.764,19.132L-6.765,19.132C-16.341,14.209,-17.388,0.929,-8.702,-5.434L11.724,-20.398C12.937,-21.287,14.644,-20.409,14.627,-18.905L14.342,6.413C14.221,17.18,2.812,24.055,-6.764,19.132Z" /></g><g id="Group 9" transform="matrix(1,0,0,1,452.975,-2.566)"><path fill="#8abaff" fill-opacity="1" d="M-6.764,19.132L-6.765,19.132C-16.341,14.209,-17.388,0.929,-8.702,-5.434L11.724,-20.398C12.937,-21.287,14.644,-20.409,14.627,-18.905L14.342,6.413C14.221,17.18,2.812,24.055,-6.764,19.132Z" /></g><g id="Group 8" transform="matrix(1,0,0,1,349.944,7.687)"><path fill="#8abaff" fill-opacity="1" d="M-6.764,19.132L-6.765,19.132C-16.341,14.209,-17.388,0.929,-8.702,-5.434L11.724,-20.398C12.937,-21.287,14.644,-20.409,14.627,-18.905L14.342,6.413C14.221,17.18,2.812,24.055,-6.764,19.132Z" /></g><g id="Group 7" transform="matrix(1,0,0,1,240.402,-9.041)"><path fill="#8abaff" fill-opacity="1" d="M-6.764,19.132L-6.765,19.132C-16.341,14.209,-17.388,0.929,-8.702,-5.434L11.724,-20.398C12.937,-21.287,14.644,-20.409,14.627,-18.905L14.342,6.413C14.221,17.18,2.812,24.055,-6.764,19.132Z" /></g><g id="Group 6" transform="matrix(1,0,0,1,108.465,219.696)"><path fill="#8abaff" fill-opacity="1" d="M-6.764,19.132L-6.765,19.132C-16.341,14.209,-17.388,0.929,-8.702,-5.434L11.724,-20.398C12.937,-21.287,14.644,-20.409,14.627,-18.905L14.342,6.413C14.221,17.18,2.812,24.055,-6.764,19.132Z" /></g><g id="Group 5" transform="matrix(1,0,0,1,218.547,219.696)"><path fill="#8abaff" fill-opacity="1" d="M-6.764,19.132L-6.765,19.132C-16.341,14.209,-17.388,0.929,-8.702,-5.434L11.724,-20.398C12.937,-21.287,14.644,-20.409,14.627,-18.905L14.342,6.413C14.221,17.18,2.812,24.055,-6.764,19.132Z" /></g><g id="Group 4" transform="matrix(1,0,0,1,316.758,222.394)"><path fill="#8abaff" fill-opacity="1" d="M-6.764,19.132L-6.765,19.132C-16.341,14.209,-17.388,0.929,-8.702,-5.434L11.724,-20.398C12.937,-21.287,14.644,-20.409,14.627,-18.905L14.342,6.413C14.221,17.18,2.812,24.055,-6.764,19.132Z" /></g><g id="Group 3" transform="matrix(1,0,0,1,372.339,143.07)"><path fill="#8abaff" fill-opacity="1" d="M-6.764,19.132L-6.765,19.132C-16.341,14.209,-17.388,0.929,-8.702,-5.434L11.724,-20.398C12.937,-21.287,14.644,-20.409,14.627,-18.905L14.342,6.413C14.221,17.18,2.812,24.055,-6.764,19.132Z" /></g><g id="Group 2" transform="matrix(1,0,0,1,269.307,153.323)"><path fill="#8abaff" fill-opacity="1" d="M-6.764,19.132L-6.765,19.132C-16.341,14.209,-17.388,0.929,-8.702,-5.434L11.724,-20.398C12.937,-21.287,14.644,-20.409,14.627,-18.905L14.342,6.413C14.221,17.18,2.812,24.055,-6.764,19.132Z" /></g><g id="Group 1" transform="matrix(1,0,0,1,159.765,136.595)"><path fill="#8abaff" fill-opacity="1" d="M-6.764,19.132L-6.765,19.132C-16.341,14.209,-17.388,0.929,-8.702,-5.434L11.724,-20.398C12.937,-21.287,14.644,-20.409,14.627,-18.905L14.342,6.413C14.221,17.18,2.812,24.055,-6.764,19.132Z" /></g></g></g></g></g></g></g></g><g transform="matrix(1,0,0,1,200,200)" id="matte"><g id="Rectangle 1" transform="matrix(1,0,0,1,0,110.5)"><rect height="207" width="430" y="0" x="0" stroke-linejoin="miter" stroke-linecap="butt" stroke-width="0" stroke-opacity="1" stroke="#08f0ba" fill="#ee0f0f" fill-opacity="1" /></g></g><g id="Layer 2"><g transform="translate(180.178,132.225)"><animateTransform repeatCount="indefinite" type="translate" attributeName="transform" dur="2s" begin="0s" calcMode="spline" values="180.178 132.225; 177.178 118.225; 180.178 132.225" keyTimes="0; 0.5; 1" keySplines="0.333 0 0.667 1; 0.333 0 0.667 1" fill="freeze" /><g transform="scale(1,1) translate(0,0)"><g transform="matrix(1,0,0,1,19.822,67.775)" opacity="0" id="Null 1" /></g></g></g><g id="Layer 1"><g transform="translate(95.756,208.288)"><animateTransform repeatCount="indefinite" type="translate" attributeName="transform" dur="2s" begin="0s" calcMode="spline" values="95.756 208.288; 88.756 208.288; 95.756 208.288" keyTimes="0; 0.5; 1" keySplines="0.333 0 0.667 1; 0.333 0 0.667 1" fill="freeze" /><g transform="scale(1,1) translate(0,0)"><g id="Group 1"><path fill="#d6daee" fill-opacity="1" d="M64.103,0C64.103,35.403,35.403,64.103,0,64.103C-35.403,64.103,-64.103,35.403,-64.103,0C-64.103,-35.403,-35.403,-64.103,0,-64.103C35.403,-64.103,64.103,-35.403,64.103,0Z" /></g></g></g></g><g id="Layer 2"><g transform="translate(180.178,132.225)"><animateTransform repeatCount="indefinite" type="translate" attributeName="transform" dur="2s" begin="0s" calcMode="spline" values="180.178 132.225; 177.178 118.225; 180.178 132.225" keyTimes="0; 0.5; 1" keySplines="0.333 0 0.667 1; 0.333 0 0.667 1" fill="freeze" /><g transform="scale(1,1) translate(0,0)"><g id="Group 1"><path fill="#d6daee" fill-opacity="1" d="M90.655,0C90.655,50.068,50.068,90.655,0,90.655C-50.068,90.655,-90.655,50.068,-90.655,0C-90.655,-50.068,-50.068,-90.655,0,-90.655C50.068,-90.655,90.655,-50.068,90.655,0Z" /></g></g></g></g><g id="Layer 3"><g transform="translate(162.135,206.563)"><animateTransform repeatCount="indefinite" type="translate" attributeName="transform" dur="2s" begin="0s" calcMode="spline" values="162.135 206.563; 157.135 205.563; 162.135 206.563" keyTimes="0; 0.5; 1" keySplines="0.333 0 0.667 1; 0.333 0 0.667 1" fill="freeze" /><g transform="scale(1,1) translate(0,0)"><g id="Group 1"><path fill="#d6daee" fill-opacity="1" d="M66.378,0C66.378,36.66,36.66,66.378,0,66.378C-36.66,66.378,-66.378,36.66,-66.378,0C-66.378,-36.66,-36.66,-66.378,0,-66.378C36.66,-66.378,66.378,-36.66,66.378,0Z" /></g></g></g></g><g id="Layer 4"><g transform="translate(260.681,151.053)"><animateTransform repeatCount="indefinite" type="translate" attributeName="transform" dur="2s" begin="0s" calcMode="spline" values="260.681 151.053; 268.681 143.053; 260.681 151.053" keyTimes="0; 0.5; 1" keySplines="0.333 0 0.667 1; 0.333 0 0.667 1" fill="freeze" /><g transform="scale(1,1) translate(0,0)"><g id="Group 1"><path fill="#d6daee" fill-opacity="1" d="M69.827,0C69.827,38.564,38.564,69.827,0,69.827C-38.564,69.827,-69.827,38.564,-69.827,0C-69.827,-38.564,-38.564,-69.827,0,-69.827C38.564,-69.827,69.827,-38.564,69.827,0Z" /></g></g></g></g><g id="Layer 5"><g transform="translate(243.704,202.565)"><animateTransform repeatCount="indefinite" type="translate" attributeName="transform" dur="2s" begin="0s" calcMode="spline" values="243.704 202.565; 233.704 202.565; 243.704 202.565" keyTimes="0; 0.5; 1" keySplines="0.333 0 0.667 1; 0.333 0 0.667 1" fill="freeze" /><g transform="scale(1,1) translate(0,0)"><g id="Group 1"><path fill="#d6daee" fill-opacity="1" d="M69.827,0C69.827,38.564,38.564,69.827,0,69.827C-38.564,69.827,-69.827,38.564,-69.827,0C-69.827,-38.564,-38.564,-69.827,0,-69.827C38.564,-69.827,69.827,-38.564,69.827,0Z" /></g></g></g></g><g id="Layer 6"><g transform="translate(322.789,202.565)"><animateTransform repeatCount="indefinite" type="translate" attributeName="transform" dur="2s" begin="0s" calcMode="spline" values="322.789 202.565; 313.789 201.565; 322.789 202.565" keyTimes="0; 0.5; 1" keySplines="0.333 0 0.667 1; 0.333 0 0.667 1" fill="freeze" /><g transform="scale(1,1) translate(0,0)"><g id="Group 1"><path fill="#d6daee" fill-opacity="1" d="M69.827,0C69.827,38.564,38.564,69.827,0,69.827C-38.564,69.827,-69.827,38.564,-69.827,0C-69.827,-38.564,-38.564,-69.827,0,-69.827C38.564,-69.827,69.827,-38.564,69.827,0Z" /></g></g></g></g></svg>