<?xml version="1.0" encoding="utf-8"?><svg fill="none" viewBox="0 0 300 300" xmlns="http://www.w3.org/2000/svg"><defs><linearGradient id="null" gradientUnits="userSpaceOnUse" spreadMethod="pad" x2="57.787" y2="-0.723" x1="-58.011" y1="-0.723"><stop offset="0%" stop-color="#255e96" /><stop offset="50%" stop-color="#52a3ca" /><stop offset="100%" stop-color="#7fe8ff" /></linearGradient><linearGradient id="null" gradientUnits="userSpaceOnUse" spreadMethod="pad" x2="63.249" y2="-0.602" x1="-63.64" y1="-0.602"><stop offset="0%" stop-color="#255e96" /><stop offset="50%" stop-color="#52a3ca" /><stop offset="100%" stop-color="#7fe8ff" /></linearGradient></defs><g opacity="0" id="Shape Layer 1"><animate repeatCount="indefinite" attributeName="opacity" dur="0.4166666666666667s" begin="0s" calcMode="spline" values="0; 1; 0" keyTimes="0; 0.36; 1" keySplines="0.167 0.167 0.667 1; 0.167 0.167 0.667 1" fill="freeze" /><g transform="translate(108.875,167.5)"><animateTransform repeatCount="indefinite" type="translate" attributeName="transform" dur="0.417s" begin="0s" calcMode="spline" values="108.875 167.5; 45.125 326" keyTimes="0; 1" keySplines="0 0 1 1" fill="freeze" /><g transform="scale(1,1) translate(-4,-96.75)"><g id="Rectangle 1" transform="matrix(0.932,0.363,-0.363,0.932,4,96.75)"><rect ry="670" rx="670" height="42.5" width="6" y="0" x="0" stroke-linejoin="miter" stroke-linecap="butt" stroke-width="6" stroke-opacity="1" stroke="#3576a9" /></g></g></g></g><g opacity="0" id="Shape Layer 2"><animate repeatCount="indefinite" attributeName="opacity" dur="0.4166666666666667s" begin="0.25s" calcMode="spline" values="0; 1; 0" keyTimes="0; 0.36; 1" keySplines="0.167 0.167 0.667 1; 0.167 0.167 0.667 1" fill="freeze" /><g transform="translate(108.875,167.5)"><animateTransform repeatCount="indefinite" type="translate" attributeName="transform" dur="0.417s" begin="0.25s" calcMode="spline" values="108.875 167.5; 45.625 324.75" keyTimes="0; 1" keySplines="0 0 1 1" fill="freeze" /><g transform="scale(1,1) translate(-4,-96.75)"><g id="Rectangle 1" transform="matrix(0.932,0.363,-0.363,0.932,4,96.75)"><rect ry="670" rx="670" height="21.5" width="6" y="0" x="0" stroke-linejoin="miter" stroke-linecap="butt" stroke-width="6" stroke-opacity="1" stroke="#3576a9" /></g></g></g></g><g opacity="0" id="Shape Layer 3"><animate repeatCount="indefinite" attributeName="opacity" dur="0.4166666666666667s" begin="0.5s" calcMode="spline" values="0; 1; 0" keyTimes="0; 0.36; 1" keySplines="0.167 0.167 0.667 1; 0.167 0.167 0.667 1" fill="freeze" /><g transform="translate(108.875,167.5)"><animateTransform repeatCount="indefinite" type="translate" attributeName="transform" dur="0.417s" begin="0.5s" calcMode="spline" values="108.875 167.5; 45.625 324.75" keyTimes="0; 1" keySplines="0 0 1 1" fill="freeze" /><g transform="scale(1,1) translate(-4,-96.75)"><g id="Rectangle 1" transform="matrix(0.932,0.363,-0.363,0.932,4,96.75)"><rect ry="670" rx="670" height="42.5" width="6" y="0" x="0" stroke-linejoin="miter" stroke-linecap="butt" stroke-width="6" stroke-opacity="1" stroke="#3576a9" /></g></g></g></g><g opacity="0" id="Shape Layer 4"><animate repeatCount="indefinite" attributeName="opacity" dur="0.4166666666666667s" begin="0.21666666666666667s" calcMode="spline" values="0; 1; 0" keyTimes="0; 0.36; 1" keySplines="0.167 0.167 0.667 1; 0.167 0.167 0.667 1" fill="freeze" /><g transform="translate(153.875,167.5)"><animateTransform repeatCount="indefinite" type="translate" attributeName="transform" dur="0.417s" begin="0.217s" calcMode="spline" values="153.875 167.5; 90.125 326" keyTimes="0; 1" keySplines="0 0 1 1" fill="freeze" /><g transform="scale(1,1) translate(-4,-96.75)"><g id="Rectangle 1" transform="matrix(0.932,0.363,-0.363,0.932,4,96.75)"><rect ry="670" rx="670" height="27.5" width="6" y="0" x="0" stroke-linejoin="miter" stroke-linecap="butt" stroke-width="6" stroke-opacity="1" stroke="#3576a9" /></g></g></g></g><g opacity="0" id="Shape Layer 5"><animate repeatCount="indefinite" attributeName="opacity" dur="0.3s" begin="0.5s" calcMode="spline" values="0; 1; 0" keyTimes="0; 0.36; 1" keySplines="0.167 0.167 0.667 1; 0.167 0.167 0.667 1" fill="freeze" /><g transform="translate(153.875,167.5)"><animateTransform repeatCount="indefinite" type="translate" attributeName="transform" dur="0.3s" begin="0.5s" calcMode="spline" values="153.875 167.5; 90.625 324.75" keyTimes="0; 1" keySplines="0 0 1 1" fill="freeze" /><g transform="scale(1,1) translate(-4,-96.75)"><g id="Rectangle 1" transform="matrix(0.932,0.363,-0.363,0.932,4,96.75)"><rect ry="670" rx="670" height="30.5" width="6" y="0" x="0" stroke-linejoin="miter" stroke-linecap="butt" stroke-width="6" stroke-opacity="1" stroke="#3576a9" /></g></g></g></g><g opacity="0" id="Shape Layer 6"><animate repeatCount="indefinite" attributeName="opacity" dur="0.4166666666666667s" begin="0.5666666666666667s" calcMode="spline" values="0; 1; 0" keyTimes="0; 0.36; 1" keySplines="0.167 0.167 0.667 1; 0.167 0.167 0.667 1" fill="freeze" /><g transform="translate(153.875,167.5)"><animateTransform repeatCount="indefinite" type="translate" attributeName="transform" dur="0.417s" begin="0.567s" calcMode="spline" values="153.875 167.5; 90.625 324.75" keyTimes="0; 1" keySplines="0 0 1 1" fill="freeze" /><g transform="scale(1,1) translate(-4,-96.75)"><g id="Rectangle 1" transform="matrix(0.932,0.363,-0.363,0.932,4,96.75)"><rect ry="670" rx="670" height="42.5" width="6" y="0" x="0" stroke-linejoin="miter" stroke-linecap="butt" stroke-width="6" stroke-opacity="1" stroke="#3576a9" /></g></g></g></g><g opacity="0" id="Shape Layer 7"><animate repeatCount="indefinite" attributeName="opacity" dur="0.4166666666666667s" begin="0s" calcMode="spline" values="0; 1; 0" keyTimes="0; 0.36; 1" keySplines="0.167 0.167 0.667 1; 0.167 0.167 0.667 1" fill="freeze" /><g transform="translate(198.875,167.5)"><animateTransform repeatCount="indefinite" type="translate" attributeName="transform" dur="0.417s" begin="0s" calcMode="spline" values="198.875 167.5; 135.125 326" keyTimes="0; 1" keySplines="0 0 1 1" fill="freeze" /><g transform="scale(1,1) translate(-4,-96.75)"><g id="Rectangle 1" transform="matrix(0.932,0.363,-0.363,0.932,4,96.75)"><rect ry="670" rx="670" height="25.5" width="3.6" y="0" x="0" stroke-linejoin="miter" stroke-linecap="butt" stroke-width="6" stroke-opacity="1" stroke="#3576a9" /></g></g></g></g><g opacity="0" id="Shape Layer 8"><animate repeatCount="indefinite" attributeName="opacity" dur="0.23333229166666666s" begin="0.21601666666666666s" calcMode="spline" values="0; 1; 0" keyTimes="0; 0.36; 1" keySplines="0.167 0.167 0.667 1; 0.167 0.167 0.667 1" fill="freeze" /><g transform="translate(218.875,167.5)"><animateTransform repeatCount="indefinite" type="translate" attributeName="transform" dur="0.233s" begin="0.216s" calcMode="spline" values="218.875 167.5; 155.625 324.75" keyTimes="0; 1" keySplines="0 0 1 1" fill="freeze" /><g transform="scale(1,1) translate(-4,-96.75)"><g id="Rectangle 1" transform="matrix(0.932,0.363,-0.363,0.932,4,96.75)"><rect ry="670" rx="670" height="42.5" width="6" y="0" x="0" stroke-linejoin="miter" stroke-linecap="butt" stroke-width="6" stroke-opacity="1" stroke="#3576a9" /></g></g></g></g><g opacity="0" id="Shape Layer 9"><animate repeatCount="indefinite" attributeName="opacity" dur="0.31666666666666665s" begin="0.4s" calcMode="spline" values="0; 1; 0" keyTimes="0; 0.36; 1" keySplines="0.167 0.167 0.667 1; 0.167 0.167 0.667 1" fill="freeze" /><g transform="translate(198.875,167.5)"><animateTransform repeatCount="indefinite" type="translate" attributeName="transform" dur="0.317s" begin="0.4s" calcMode="spline" values="198.875 167.5; 135.625 324.75" keyTimes="0; 1" keySplines="0 0 1 1" fill="freeze" /><g transform="scale(1,1) translate(-4,-96.75)"><g id="Rectangle 1" transform="matrix(0.932,0.363,-0.363,0.932,4,96.75)"><rect ry="670" rx="670" height="42.5" width="6" y="0" x="0" stroke-linejoin="miter" stroke-linecap="butt" stroke-width="6" stroke-opacity="1" stroke="#3576a9" /></g></g></g></g><g opacity="0" id="Shape Layer 10"><animate repeatCount="indefinite" attributeName="opacity" dur="0.23333229166666666s" begin="0.21601666666666666s" calcMode="spline" values="0; 1; 0" keyTimes="0; 0.36; 1" keySplines="0.167 0.167 0.667 1; 0.167 0.167 0.667 1" fill="freeze" /><g transform="translate(128.875,167.5)"><animateTransform repeatCount="indefinite" type="translate" attributeName="transform" dur="0.233s" begin="0.216s" calcMode="spline" values="128.875 167.5; 65.625 324.75" keyTimes="0; 1" keySplines="0 0 1 1" fill="freeze" /><g transform="scale(1,1) translate(-4,-96.75)"><g id="Rectangle 1" transform="matrix(0.932,0.363,-0.363,0.932,4,96.75)"><rect ry="670" rx="670" height="17.5" width="6" y="0" x="0" stroke-linejoin="miter" stroke-linecap="butt" stroke-width="6" stroke-opacity="1" stroke="#3576a9" /></g></g></g></g><g opacity="0" id="Shape Layer 11"><animate repeatCount="indefinite" attributeName="opacity" dur="0.9666666666666667s" begin="0s" calcMode="spline" values="0; 1; 0; 0; 1; 0" keyTimes="0; 0.155; 0.431; 0.569; 0.724; 1" keySplines="0.167 0.167 0.667 1; 0.167 0.167 0.667 1; 0.167 0 0.667 1; 0.167 0.167 0.667 1; 0.167 0.167 0.667 1" fill="freeze" /><g transform="translate(238.875,167.5)"><animateTransform repeatCount="indefinite" type="translate" attributeName="transform" dur="0.967s" begin="0s" calcMode="spline" values="238.875 167.5; 175.125 326; 238.875 167.5; 175.125 326" keyTimes="0; 0.431; 0.569; 1" keySplines="0 0 1 1; 0.167 0 0.667 1; 0 0 1 1" fill="freeze" /><g transform="scale(1,1) translate(-4,-96.75)"><g id="Rectangle 1" transform="matrix(0.932,0.363,-0.363,0.932,4,96.75)"><rect ry="670" rx="670" height="42.5" width="6" y="0" x="0" stroke-linejoin="miter" stroke-linecap="butt" stroke-width="6" stroke-opacity="1" stroke="#3576a9" /></g></g></g></g><g opacity="0" id="Shape Layer 12"><animate repeatCount="indefinite" attributeName="opacity" dur="0.23333333333333334s" begin="0.4166666666666667s" calcMode="spline" values="0; 1; 0" keyTimes="0; 0.36; 1" keySplines="0.167 0.167 0.667 1; 0.167 0.167 0.667 1" fill="freeze" /><g transform="translate(173.875,182.5)"><animateTransform repeatCount="indefinite" type="translate" attributeName="transform" dur="0.233s" begin="0.417s" calcMode="spline" values="173.875 182.5; 110.625 339.75" keyTimes="0; 1" keySplines="0 0 1 1" fill="freeze" /><g transform="scale(1,1) translate(-4,-96.75)"><g id="Rectangle 1" transform="matrix(0.932,0.363,-0.363,0.932,4,96.75)"><rect ry="670" rx="670" height="17.5" width="6" y="0" x="0" stroke-linejoin="miter" stroke-linecap="butt" stroke-width="6" stroke-opacity="1" stroke="#3576a9" /></g></g></g></g><g opacity="0" id="Shape Layer 13"><animate repeatCount="indefinite" attributeName="opacity" dur="0.4166666666666667s" begin="0.5333333333333333s" calcMode="spline" values="0; 1; 0" keyTimes="0; 0.36; 1" keySplines="0.167 0.167 0.667 1; 0.167 0.167 0.667 1" fill="freeze" /><g transform="translate(163.875,187.5)"><animateTransform repeatCount="indefinite" type="translate" attributeName="transform" dur="0.417s" begin="0.533s" calcMode="spline" values="163.875 187.5; 100.125 346" keyTimes="0; 1" keySplines="0 0 1 1" fill="freeze" /><g transform="scale(1,1) translate(-4,-96.75)"><g id="Rectangle 1" transform="matrix(0.932,0.363,-0.363,0.932,4,96.75)"><rect ry="670" rx="670" height="42.5" width="6" y="0" x="0" stroke-linejoin="miter" stroke-linecap="butt" stroke-width="6" stroke-opacity="1" stroke="#3576a9" /></g></g></g></g><g opacity="0" id="Shape Layer 14"><animate repeatCount="indefinite" attributeName="opacity" dur="0.23333333333333334s" begin="0.3s" calcMode="spline" values="0; 1; 0" keyTimes="0; 0.36; 1" keySplines="0.167 0.167 0.667 1; 0.167 0.167 0.667 1" fill="freeze" /><g transform="translate(218.875,167.5)"><animateTransform repeatCount="indefinite" type="translate" attributeName="transform" dur="0.233s" begin="0.3s" calcMode="spline" values="218.875 167.5; 155.625 324.75" keyTimes="0; 1" keySplines="0 0 1 1" fill="freeze" /><g transform="scale(1,1) translate(-4,-96.75)"><g id="Rectangle 1" transform="matrix(0.932,0.363,-0.363,0.932,4,96.75)"><rect ry="670" rx="670" height="42.5" width="6" y="0" x="0" stroke-linejoin="miter" stroke-linecap="butt" stroke-width="6" stroke-opacity="1" stroke="#3576a9" /></g></g></g></g><g id="mini cloud"><g transform="translate(45.336,89.654)"><animateTransform repeatCount="indefinite" type="translate" attributeName="transform" dur="0.833s" begin="0s" calcMode="spline" values="45.336 89.654; 48.336 87.154; 49.336 83.654; 46.336 88.154; 49.836 85.154; 47.336 88.654" keyTimes="0; 0.2; 0.4; 0.6; 0.8; 1" keySplines="0.167 0.167 0.667 1; 0.333 0 0.667 1; 0.333 0 0.667 1; 0.333 0 0.667 1; 0.333 0 0.833 0.833" fill="freeze" /><g transform="scale(-1.35,1.35) translate(-41,11)"><g id="Group 1"><path fill="url(#null)" d="M42.8,-10.369C42.018,-10.777,41.524,-11.58,41.524,-12.462L41.524,-12.477C41.524,-29.111,28.038,-42.596,11.404,-42.596C-2.546,-42.596,-14.274,-33.111,-17.697,-20.239C-18.753,-16.268,-22.415,-13.549,-26.524,-13.549L-29.827,-13.549C-45.331,-13.549,-57.899,-0.981,-57.899,14.523L-57.899,14.524C-57.899,30.028,-45.331,42.596,-29.827,42.596L29.827,42.596C45.331,42.596,57.899,30.028,57.899,14.524L57.899,14.523C57.899,3.701,51.772,-5.684,42.8,-10.369Z" /></g></g></g></g><g id="cloud"><g transform="translate(247.214,182.783)"><animateTransform repeatCount="indefinite" type="translate" attributeName="transform" dur="0.833s" begin="0s" calcMode="spline" values="247.214 182.783; 250.214 179.283; 247.714 184.783; 251.214 181.283; 248.214 184.283; 250.214 181.783" keyTimes="0; 0.2; 0.4; 0.6; 0.8; 1" keySplines="0 0 1 1; 0 0 1 1; 0 0 1 1; 0 0 1 1; 0 0 1 1" fill="freeze" /><g transform="scale(-1.76,1.76) translate(48,-35)"><g id="Group 1"><path fill="url(#null)" d="M32.655,-18.466L32.655,-18.466C29.932,-18.466,27.453,-20.097,26.442,-22.625C21.64,-34.629,9.909,-43.112,-3.81,-43.112C-16.242,-43.112,-27.042,-36.147,-32.532,-25.907C-34.474,-22.285,-39.077,-18.075,-42.95,-16.701C-54.892,-12.465,-63.444,-1.071,-63.444,12.323L-63.444,12.323C-63.444,29.327,-49.659,43.112,-32.655,43.112L32.655,43.112C49.659,43.112,63.444,29.327,63.444,12.323L63.444,12.323C63.444,-4.681,49.659,-18.466,32.655,-18.466Z" /></g></g></g></g></svg>