<?xml version="1.0" encoding="utf-8"?><svg fill="none" viewBox="0 0 300 300" xmlns="http://www.w3.org/2000/svg"><defs><linearGradient id="null" gradientUnits="userSpaceOnUse" spreadMethod="pad" x2="57.787" y2="-0.723" x1="-58.011" y1="-0.723"><stop offset="0%" stop-color="#255e96" /><stop offset="50%" stop-color="#52a3ca" /><stop offset="100%" stop-color="#7fe8ff" /></linearGradient><linearGradient id="null" gradientUnits="userSpaceOnUse" spreadMethod="pad" x2="63.249" y2="-0.602" x1="-63.64" y1="-0.602"><stop offset="0%" stop-color="#255e96" /><stop offset="50%" stop-color="#52a3ca" /><stop offset="100%" stop-color="#7fe8ff" /></linearGradient></defs><g opacity="0" id="Layer 1"><animate repeatCount="indefinite" attributeName="opacity" dur="0.55s" begin="0.13333333333333333s" calcMode="spline" values="0; 1; 0" keyTimes="0; 0.091; 1" keySplines="0.333 0 0.667 1; 0.333 0 0.667 1" fill="freeze" /><g transform="translate(176.852,169.968)"><animateTransform repeatCount="indefinite" type="translate" attributeName="transform" dur="0.55s" begin="0.133s" calcMode="spline" values="176.852 169.968; 176.852 324.968" keyTimes="0; 1" keySplines="0 0 1 1" fill="freeze" /><g transform="rotate(0)"><animateTransform repeatCount="indefinite" type="rotate" attributeName="transform" dur="0.55s" begin="0.133s" calcMode="spline" values="0; 360" keyTimes="0; 1" keySplines="0 0 1 1" fill="freeze" /><g transform="scale(0.468,0.468) translate(-41.852,-64.468)"><g id="Group 9" transform="matrix(1,0,0,1,41.852,64.468)"><path stroke-linejoin="miter" stroke-linecap="round" stroke-width="6" stroke-opacity="1" stroke="#3678aa" d="M0,-35.234L0,35.234" /></g><g id="Group 8" transform="matrix(1,0,0,1,41.828,42.098)"><path stroke-linejoin="miter" stroke-linecap="round" stroke-width="6" stroke-opacity="1" stroke="#3678aa" d="M-9.419,-3.938L0.039,3.938L9.419,-3.938" /></g><g id="Group 7" transform="matrix(1,0,0,1,41.828,86.634)"><path stroke-linejoin="miter" stroke-linecap="round" stroke-width="6" stroke-opacity="1" stroke="#3678aa" d="M-9.419,3.938L0.039,-3.938L9.419,3.938" /></g><g id="Group 6" transform="matrix(1,0,0,1,20.048,51.09)"><path stroke-linejoin="miter" stroke-linecap="round" stroke-width="6" stroke-opacity="1" stroke="#3678aa" d="M-5.839,8.006L5.839,4.116L4.085,-8.006" /></g><g id="Group 5" transform="matrix(1,0,0,1,20.18,77.298)"><path stroke-linejoin="miter" stroke-linecap="round" stroke-width="6" stroke-opacity="1" stroke="#3678aa" d="M3.845,8.096L5.782,-4.059L-5.782,-8.096" /></g><g id="Group 4" transform="matrix(1,0,0,1,64.266,51.09)"><path stroke-linejoin="miter" stroke-linecap="round" stroke-width="6" stroke-opacity="1" stroke="#3678aa" d="M5.839,8.006L-5.839,4.116L-4.085,-8.006" /></g><g id="Group 3" transform="matrix(1,0,0,1,63.766,77.298)"><path stroke-linejoin="miter" stroke-linecap="round" stroke-width="6" stroke-opacity="1" stroke="#3678aa" d="M-3.845,8.096L-5.782,-4.059L5.782,-8.096" /></g><g id="Group 2" transform="matrix(1,0,0,1,41.852,64.468)"><path stroke-linejoin="miter" stroke-linecap="round" stroke-width="6" stroke-opacity="1" stroke="#3678aa" d="M-30.514,-17.617L30.514,17.617" /></g><g id="Group 1" transform="matrix(1,0,0,1,41.852,64.468)"><path stroke-linejoin="miter" stroke-linecap="round" stroke-width="6" stroke-opacity="1" stroke="#3678aa" d="M-30.514,17.617L30.514,-17.617" /></g></g></g></g></g><g opacity="0" id="Layer 2"><animate repeatCount="indefinite" attributeName="opacity" dur="0.5833333333333334s" begin="0s" calcMode="spline" values="0; 1; 0" keyTimes="0; 0.171; 1" keySplines="0.333 0 0.667 1; 0.333 0 0.667 1" fill="freeze" /><g transform="translate(208.591,177.5)"><animateTransform repeatCount="indefinite" type="translate" attributeName="transform" dur="0.583s" begin="0s" calcMode="spline" values="208.591 177.5; 208.591 325.5" keyTimes="0; 1" keySplines="0 0 1 1" fill="freeze" /><g transform="rotate(0)"><animateTransform repeatCount="indefinite" type="rotate" attributeName="transform" dur="0.583s" begin="0s" calcMode="spline" values="0; 360" keyTimes="0; 1" keySplines="0 0 1 1" fill="freeze" /><g transform="scale(0.475,0.475) translate(-145.341,-106)"><g id="Group 9" transform="matrix(1,0,0,1,145.341,106)"><path stroke-linejoin="miter" stroke-linecap="round" stroke-width="5" stroke-opacity="1" stroke="#58acd2" d="M0,-48.511L0,48.511" /></g><g id="Group 8" transform="matrix(1,0,0,1,145.309,75.201)"><path stroke-linejoin="miter" stroke-linecap="round" stroke-width="5" stroke-opacity="1" stroke="#58acd2" d="M-12.969,-5.422L0.054,5.422L12.969,-5.422" /></g><g id="Group 7" transform="matrix(1,0,0,1,145.309,136.519)"><path stroke-linejoin="miter" stroke-linecap="round" stroke-width="5" stroke-opacity="1" stroke="#58acd2" d="M-12.969,5.422L0.054,-5.422L12.969,5.422" /></g><g id="Group 6" transform="matrix(1,0,0,1,115.322,87.58)"><path stroke-linejoin="miter" stroke-linecap="round" stroke-width="5" stroke-opacity="1" stroke="#58acd2" d="M-8.039,11.023L8.039,5.667L5.624,-11.023" /></g><g id="Group 5" transform="matrix(1,0,0,1,115.503,123.664)"><path stroke-linejoin="miter" stroke-linecap="round" stroke-width="5" stroke-opacity="1" stroke="#58acd2" d="M5.294,11.147L7.961,-5.589L-7.961,-11.147" /></g><g id="Group 4" transform="matrix(1,0,0,1,176.201,87.58)"><path stroke-linejoin="miter" stroke-linecap="round" stroke-width="5" stroke-opacity="1" stroke="#58acd2" d="M8.039,11.023L-8.039,5.667L-5.624,-11.023" /></g><g id="Group 3" transform="matrix(1,0,0,1,175.513,123.664)"><path stroke-linejoin="miter" stroke-linecap="round" stroke-width="5" stroke-opacity="1" stroke="#58acd2" d="M-5.294,11.147L-7.961,-5.589L7.961,-11.147" /></g><g id="Group 2" transform="matrix(1,0,0,1,145.341,106)"><path stroke-linejoin="miter" stroke-linecap="round" stroke-width="5" stroke-opacity="1" stroke="#58acd2" d="M-42.011,-24.255L42.011,24.255" /></g><g id="Group 1" transform="matrix(1,0,0,1,145.341,106)"><path stroke-linejoin="miter" stroke-linecap="round" stroke-width="5" stroke-opacity="1" stroke="#58acd2" d="M-42.011,24.255L42.011,-24.255" /></g></g></g></g></g><g opacity="0" id="Layer 3"><animate repeatCount="indefinite" attributeName="opacity" dur="0.43333333333333335s" begin="0.5s" calcMode="spline" values="0; 1; 0" keyTimes="0; 0.231; 1" keySplines="0.333 0 0.667 1; 0.333 0 0.667 1" fill="freeze" /><g transform="translate(88.591,147.5)"><animateTransform repeatCount="indefinite" type="translate" attributeName="transform" dur="0.433s" begin="0.5s" calcMode="spline" values="88.591 147.5; 88.591 325.5" keyTimes="0; 1" keySplines="0 0 1 1" fill="freeze" /><g transform="rotate(0)"><animateTransform repeatCount="indefinite" type="rotate" attributeName="transform" dur="0.433s" begin="0.5s" calcMode="spline" values="0; 360" keyTimes="0; 1" keySplines="0 0 1 1" fill="freeze" /><g transform="scale(0.475,0.475) translate(-145.341,-106)"><g id="Group 9" transform="matrix(1,0,0,1,145.341,106)"><path stroke-linejoin="miter" stroke-linecap="round" stroke-width="5" stroke-opacity="1" stroke="#58acd2" d="M0,-48.511L0,48.511" /></g><g id="Group 8" transform="matrix(1,0,0,1,145.309,75.201)"><path stroke-linejoin="miter" stroke-linecap="round" stroke-width="5" stroke-opacity="1" stroke="#58acd2" d="M-12.969,-5.422L0.054,5.422L12.969,-5.422" /></g><g id="Group 7" transform="matrix(1,0,0,1,145.309,136.519)"><path stroke-linejoin="miter" stroke-linecap="round" stroke-width="5" stroke-opacity="1" stroke="#58acd2" d="M-12.969,5.422L0.054,-5.422L12.969,5.422" /></g><g id="Group 6" transform="matrix(1,0,0,1,115.322,87.58)"><path stroke-linejoin="miter" stroke-linecap="round" stroke-width="5" stroke-opacity="1" stroke="#58acd2" d="M-8.039,11.023L8.039,5.667L5.624,-11.023" /></g><g id="Group 5" transform="matrix(1,0,0,1,115.503,123.664)"><path stroke-linejoin="miter" stroke-linecap="round" stroke-width="5" stroke-opacity="1" stroke="#58acd2" d="M5.294,11.147L7.961,-5.589L-7.961,-11.147" /></g><g id="Group 4" transform="matrix(1,0,0,1,176.201,87.58)"><path stroke-linejoin="miter" stroke-linecap="round" stroke-width="5" stroke-opacity="1" stroke="#58acd2" d="M8.039,11.023L-8.039,5.667L-5.624,-11.023" /></g><g id="Group 3" transform="matrix(1,0,0,1,175.513,123.664)"><path stroke-linejoin="miter" stroke-linecap="round" stroke-width="5" stroke-opacity="1" stroke="#58acd2" d="M-5.294,11.147L-7.961,-5.589L7.961,-11.147" /></g><g id="Group 2" transform="matrix(1,0,0,1,145.341,106)"><path stroke-linejoin="miter" stroke-linecap="round" stroke-width="5" stroke-opacity="1" stroke="#58acd2" d="M-42.011,-24.255L42.011,24.255" /></g><g id="Group 1" transform="matrix(1,0,0,1,145.341,106)"><path stroke-linejoin="miter" stroke-linecap="round" stroke-width="5" stroke-opacity="1" stroke="#58acd2" d="M-42.011,24.255L42.011,-24.255" /></g></g></g></g></g><g opacity="0" id="Layer 4"><animate repeatCount="indefinite" attributeName="opacity" dur="0.5333333333333333s" begin="0.2833333333333333s" calcMode="spline" values="0; 1; 0" keyTimes="0; 0.13; 1" keySplines="0.333 0 0.667 1; 0.333 0 0.667 1" fill="freeze" /><g transform="translate(138.591,157.5)"><animateTransform repeatCount="indefinite" type="translate" attributeName="transform" dur="0.533s" begin="0.283s" calcMode="spline" values="138.591 157.5; 138.591 335.5" keyTimes="0; 1" keySplines="0 0 1 1" fill="freeze" /><g transform="rotate(0)"><animateTransform repeatCount="indefinite" type="rotate" attributeName="transform" dur="0.533s" begin="0.283s" calcMode="spline" values="0; 360" keyTimes="0; 1" keySplines="0 0 1 1" fill="freeze" /><g transform="scale(0.265,0.265) translate(-145.341,-106)"><g id="Group 9" transform="matrix(1,0,0,1,145.341,106)"><path stroke-linejoin="miter" stroke-linecap="round" stroke-width="5" stroke-opacity="1" stroke="#58acd2" d="M0,-48.511L0,48.511" /></g><g id="Group 8" transform="matrix(1,0,0,1,145.309,75.201)"><path stroke-linejoin="miter" stroke-linecap="round" stroke-width="5" stroke-opacity="1" stroke="#58acd2" d="M-12.969,-5.422L0.054,5.422L12.969,-5.422" /></g><g id="Group 7" transform="matrix(1,0,0,1,145.309,136.519)"><path stroke-linejoin="miter" stroke-linecap="round" stroke-width="5" stroke-opacity="1" stroke="#58acd2" d="M-12.969,5.422L0.054,-5.422L12.969,5.422" /></g><g id="Group 6" transform="matrix(1,0,0,1,115.322,87.58)"><path stroke-linejoin="miter" stroke-linecap="round" stroke-width="5" stroke-opacity="1" stroke="#58acd2" d="M-8.039,11.023L8.039,5.667L5.624,-11.023" /></g><g id="Group 5" transform="matrix(1,0,0,1,115.503,123.664)"><path stroke-linejoin="miter" stroke-linecap="round" stroke-width="5" stroke-opacity="1" stroke="#58acd2" d="M5.294,11.147L7.961,-5.589L-7.961,-11.147" /></g><g id="Group 4" transform="matrix(1,0,0,1,176.201,87.58)"><path stroke-linejoin="miter" stroke-linecap="round" stroke-width="5" stroke-opacity="1" stroke="#58acd2" d="M8.039,11.023L-8.039,5.667L-5.624,-11.023" /></g><g id="Group 3" transform="matrix(1,0,0,1,175.513,123.664)"><path stroke-linejoin="miter" stroke-linecap="round" stroke-width="5" stroke-opacity="1" stroke="#58acd2" d="M-5.294,11.147L-7.961,-5.589L7.961,-11.147" /></g><g id="Group 2" transform="matrix(1,0,0,1,145.341,106)"><path stroke-linejoin="miter" stroke-linecap="round" stroke-width="5" stroke-opacity="1" stroke="#58acd2" d="M-42.011,-24.255L42.011,24.255" /></g><g id="Group 1" transform="matrix(1,0,0,1,145.341,106)"><path stroke-linejoin="miter" stroke-linecap="round" stroke-width="5" stroke-opacity="1" stroke="#58acd2" d="M-42.011,24.255L42.011,-24.255" /></g></g></g></g></g><g opacity="0" id="Layer 5"><animate repeatCount="indefinite" attributeName="opacity" dur="0.45s" begin="0.4166666666666667s" calcMode="spline" values="0; 1; 0" keyTimes="0; 0.111; 1" keySplines="0.333 0 0.667 1; 0.333 0 0.667 1" fill="freeze" /><g transform="translate(241.852,154.968)"><animateTransform repeatCount="indefinite" type="translate" attributeName="transform" dur="0.45s" begin="0.417s" calcMode="spline" values="241.852 154.968; 241.852 319.968" keyTimes="0; 1" keySplines="0 0 1 1" fill="freeze" /><g transform="rotate(0)"><animateTransform repeatCount="indefinite" type="rotate" attributeName="transform" dur="0.45s" begin="0.417s" calcMode="spline" values="0; 360" keyTimes="0; 1" keySplines="0 0 1 1" fill="freeze" /><g transform="scale(0.238,0.238) translate(-41.852,-64.468)"><g id="Group 9" transform="matrix(1,0,0,1,41.852,64.468)"><path stroke-linejoin="miter" stroke-linecap="round" stroke-width="6" stroke-opacity="1" stroke="#3678aa" d="M0,-35.234L0,35.234" /></g><g id="Group 8" transform="matrix(1,0,0,1,41.828,42.098)"><path stroke-linejoin="miter" stroke-linecap="round" stroke-width="6" stroke-opacity="1" stroke="#3678aa" d="M-9.419,-3.938L0.039,3.938L9.419,-3.938" /></g><g id="Group 7" transform="matrix(1,0,0,1,41.828,86.634)"><path stroke-linejoin="miter" stroke-linecap="round" stroke-width="6" stroke-opacity="1" stroke="#3678aa" d="M-9.419,3.938L0.039,-3.938L9.419,3.938" /></g><g id="Group 6" transform="matrix(1,0,0,1,20.048,51.09)"><path stroke-linejoin="miter" stroke-linecap="round" stroke-width="6" stroke-opacity="1" stroke="#3678aa" d="M-5.839,8.006L5.839,4.116L4.085,-8.006" /></g><g id="Group 5" transform="matrix(1,0,0,1,20.18,77.298)"><path stroke-linejoin="miter" stroke-linecap="round" stroke-width="6" stroke-opacity="1" stroke="#3678aa" d="M3.845,8.096L5.782,-4.059L-5.782,-8.096" /></g><g id="Group 4" transform="matrix(1,0,0,1,64.266,51.09)"><path stroke-linejoin="miter" stroke-linecap="round" stroke-width="6" stroke-opacity="1" stroke="#3678aa" d="M5.839,8.006L-5.839,4.116L-4.085,-8.006" /></g><g id="Group 3" transform="matrix(1,0,0,1,63.766,77.298)"><path stroke-linejoin="miter" stroke-linecap="round" stroke-width="6" stroke-opacity="1" stroke="#3678aa" d="M-3.845,8.096L-5.782,-4.059L5.782,-8.096" /></g><g id="Group 2" transform="matrix(1,0,0,1,41.852,64.468)"><path stroke-linejoin="miter" stroke-linecap="round" stroke-width="6" stroke-opacity="1" stroke="#3678aa" d="M-30.514,-17.617L30.514,17.617" /></g><g id="Group 1" transform="matrix(1,0,0,1,41.852,64.468)"><path stroke-linejoin="miter" stroke-linecap="round" stroke-width="6" stroke-opacity="1" stroke="#3678aa" d="M-30.514,17.617L30.514,-17.617" /></g></g></g></g></g><g opacity="0" id="Layer 6"><animate repeatCount="indefinite" attributeName="opacity" dur="0.8s" begin="0.11666666666666667s" calcMode="spline" values="0; 1; 0" keyTimes="0; 0.063; 1" keySplines="0.333 0 0.667 1; 0.333 0 0.667 1" fill="freeze" /><g transform="translate(126.852,169.968)"><animateTransform repeatCount="indefinite" type="translate" attributeName="transform" dur="0.8s" begin="0.117s" calcMode="spline" values="126.852 169.968; 126.852 334.968" keyTimes="0; 1" keySplines="0 0 1 1" fill="freeze" /><g transform="rotate(0)"><animateTransform repeatCount="indefinite" type="rotate" attributeName="transform" dur="0.8s" begin="0.117s" calcMode="spline" values="0; 360" keyTimes="0; 1" keySplines="0 0 1 1" fill="freeze" /><g transform="scale(0.238,0.238) translate(-41.852,-64.468)"><g id="Group 9" transform="matrix(1,0,0,1,41.852,64.468)"><path stroke-linejoin="miter" stroke-linecap="round" stroke-width="6" stroke-opacity="1" stroke="#3678aa" d="M0,-35.234L0,35.234" /></g><g id="Group 8" transform="matrix(1,0,0,1,41.828,42.098)"><path stroke-linejoin="miter" stroke-linecap="round" stroke-width="6" stroke-opacity="1" stroke="#3678aa" d="M-9.419,-3.938L0.039,3.938L9.419,-3.938" /></g><g id="Group 7" transform="matrix(1,0,0,1,41.828,86.634)"><path stroke-linejoin="miter" stroke-linecap="round" stroke-width="6" stroke-opacity="1" stroke="#3678aa" d="M-9.419,3.938L0.039,-3.938L9.419,3.938" /></g><g id="Group 6" transform="matrix(1,0,0,1,20.048,51.09)"><path stroke-linejoin="miter" stroke-linecap="round" stroke-width="6" stroke-opacity="1" stroke="#3678aa" d="M-5.839,8.006L5.839,4.116L4.085,-8.006" /></g><g id="Group 5" transform="matrix(1,0,0,1,20.18,77.298)"><path stroke-linejoin="miter" stroke-linecap="round" stroke-width="6" stroke-opacity="1" stroke="#3678aa" d="M3.845,8.096L5.782,-4.059L-5.782,-8.096" /></g><g id="Group 4" transform="matrix(1,0,0,1,64.266,51.09)"><path stroke-linejoin="miter" stroke-linecap="round" stroke-width="6" stroke-opacity="1" stroke="#3678aa" d="M5.839,8.006L-5.839,4.116L-4.085,-8.006" /></g><g id="Group 3" transform="matrix(1,0,0,1,63.766,77.298)"><path stroke-linejoin="miter" stroke-linecap="round" stroke-width="6" stroke-opacity="1" stroke="#3678aa" d="M-3.845,8.096L-5.782,-4.059L5.782,-8.096" /></g><g id="Group 2" transform="matrix(1,0,0,1,41.852,64.468)"><path stroke-linejoin="miter" stroke-linecap="round" stroke-width="6" stroke-opacity="1" stroke="#3678aa" d="M-30.514,-17.617L30.514,17.617" /></g><g id="Group 1" transform="matrix(1,0,0,1,41.852,64.468)"><path stroke-linejoin="miter" stroke-linecap="round" stroke-width="6" stroke-opacity="1" stroke="#3678aa" d="M-30.514,17.617L30.514,-17.617" /></g></g></g></g></g><g opacity="0" id="Layer 7"><animate repeatCount="indefinite" attributeName="opacity" dur="0.9666666666666667s" begin="0.016666666666666666s" calcMode="spline" values="0; 1; 0" keyTimes="0; 0.103; 1" keySplines="0.333 0 0.667 1; 0.333 0 0.667 1" fill="freeze" /><g transform="translate(138.591,167.5)"><animateTransform repeatCount="indefinite" type="translate" attributeName="transform" dur="0.967s" begin="0.017s" calcMode="spline" values="138.591 167.5; 138.591 345.5" keyTimes="0; 1" keySplines="0 0 1 1" fill="freeze" /><g transform="rotate(0)"><animateTransform repeatCount="indefinite" type="rotate" attributeName="transform" dur="0.967s" begin="0.017s" calcMode="spline" values="0; 360" keyTimes="0; 1" keySplines="0 0 1 1" fill="freeze" /><g transform="scale(0.475,0.475) translate(-145.341,-106)"><g id="Group 9" transform="matrix(1,0,0,1,145.341,106)"><path stroke-linejoin="miter" stroke-linecap="round" stroke-width="5" stroke-opacity="1" stroke="#99dfff" d="M0,-48.511L0,48.511" /></g><g id="Group 8" transform="matrix(1,0,0,1,145.309,75.201)"><path stroke-linejoin="miter" stroke-linecap="round" stroke-width="5" stroke-opacity="1" stroke="#99dfff" d="M-12.969,-5.422L0.054,5.422L12.969,-5.422" /></g><g id="Group 7" transform="matrix(1,0,0,1,145.309,136.519)"><path stroke-linejoin="miter" stroke-linecap="round" stroke-width="5" stroke-opacity="1" stroke="#99dfff" d="M-12.969,5.422L0.054,-5.422L12.969,5.422" /></g><g id="Group 6" transform="matrix(1,0,0,1,115.322,87.58)"><path stroke-linejoin="miter" stroke-linecap="round" stroke-width="5" stroke-opacity="1" stroke="#99dfff" d="M-8.039,11.023L8.039,5.667L5.624,-11.023" /></g><g id="Group 5" transform="matrix(1,0,0,1,115.503,123.664)"><path stroke-linejoin="miter" stroke-linecap="round" stroke-width="5" stroke-opacity="1" stroke="#99dfff" d="M5.294,11.147L7.961,-5.589L-7.961,-11.147" /></g><g id="Group 4" transform="matrix(1,0,0,1,176.201,87.58)"><path stroke-linejoin="miter" stroke-linecap="round" stroke-width="5" stroke-opacity="1" stroke="#99dfff" d="M8.039,11.023L-8.039,5.667L-5.624,-11.023" /></g><g id="Group 3" transform="matrix(1,0,0,1,175.513,123.664)"><path stroke-linejoin="miter" stroke-linecap="round" stroke-width="5" stroke-opacity="1" stroke="#99dfff" d="M-5.294,11.147L-7.961,-5.589L7.961,-11.147" /></g><g id="Group 2" transform="matrix(1,0,0,1,145.341,106)"><path stroke-linejoin="miter" stroke-linecap="round" stroke-width="5" stroke-opacity="1" stroke="#99dfff" d="M-42.011,-24.255L42.011,24.255" /></g><g id="Group 1" transform="matrix(1,0,0,1,145.341,106)"><path stroke-linejoin="miter" stroke-linecap="round" stroke-width="5" stroke-opacity="1" stroke="#99dfff" d="M-42.011,24.255L42.011,-24.255" /></g></g></g></g></g><g opacity="0" id="Layer 8"><animate repeatCount="indefinite" attributeName="opacity" dur="0.48333333333333334s" begin="0.35s" calcMode="spline" values="0; 1; 0" keyTimes="0; 0.207; 1" keySplines="0.333 0 0.667 1; 0.333 0 0.667 1" fill="freeze" /><g transform="translate(108.591,167.5)"><animateTransform repeatCount="indefinite" type="translate" attributeName="transform" dur="0.483s" begin="0.35s" calcMode="spline" values="108.591 167.5; 108.591 345.5" keyTimes="0; 1" keySplines="0 0 1 1" fill="freeze" /><g transform="rotate(0)"><animateTransform repeatCount="indefinite" type="rotate" attributeName="transform" dur="0.483s" begin="0.35s" calcMode="spline" values="0; 360" keyTimes="0; 1" keySplines="0 0 1 1" fill="freeze" /><g transform="scale(0.265,0.265) translate(-145.341,-106)"><g id="Group 9" transform="matrix(1,0,0,1,145.341,106)"><path stroke-linejoin="miter" stroke-linecap="round" stroke-width="10" stroke-opacity="1" stroke="#3577a9" d="M0,-48.511L0,48.511" /></g><g id="Group 8" transform="matrix(1,0,0,1,145.309,75.201)"><path stroke-linejoin="miter" stroke-linecap="round" stroke-width="10" stroke-opacity="1" stroke="#3577a9" d="M-12.969,-5.422L0.054,5.422L12.969,-5.422" /></g><g id="Group 7" transform="matrix(1,0,0,1,145.309,136.519)"><path stroke-linejoin="miter" stroke-linecap="round" stroke-width="10" stroke-opacity="1" stroke="#3577a9" d="M-12.969,5.422L0.054,-5.422L12.969,5.422" /></g><g id="Group 6" transform="matrix(1,0,0,1,115.322,87.58)"><path stroke-linejoin="miter" stroke-linecap="round" stroke-width="10" stroke-opacity="1" stroke="#3577a9" d="M-8.039,11.023L8.039,5.667L5.624,-11.023" /></g><g id="Group 5" transform="matrix(1,0,0,1,115.503,123.664)"><path stroke-linejoin="miter" stroke-linecap="round" stroke-width="10" stroke-opacity="1" stroke="#3577a9" d="M5.294,11.147L7.961,-5.589L-7.961,-11.147" /></g><g id="Group 4" transform="matrix(1,0,0,1,176.201,87.58)"><path stroke-linejoin="miter" stroke-linecap="round" stroke-width="10" stroke-opacity="1" stroke="#3577a9" d="M8.039,11.023L-8.039,5.667L-5.624,-11.023" /></g><g id="Group 3" transform="matrix(1,0,0,1,175.513,123.664)"><path stroke-linejoin="miter" stroke-linecap="round" stroke-width="10" stroke-opacity="1" stroke="#3577a9" d="M-5.294,11.147L-7.961,-5.589L7.961,-11.147" /></g><g id="Group 2" transform="matrix(1,0,0,1,145.341,106)"><path stroke-linejoin="miter" stroke-linecap="round" stroke-width="10" stroke-opacity="1" stroke="#3577a9" d="M-42.011,-24.255L42.011,24.255" /></g><g id="Group 1" transform="matrix(1,0,0,1,145.341,106)"><path stroke-linejoin="miter" stroke-linecap="round" stroke-width="10" stroke-opacity="1" stroke="#3577a9" d="M-42.011,24.255L42.011,-24.255" /></g></g></g></g></g><g opacity="0" id="Layer 9"><animate repeatCount="indefinite" attributeName="opacity" dur="0.6833333333333333s" begin="0.2s" calcMode="spline" values="0; 1; 0" keyTimes="0; 0.146; 1" keySplines="0.333 0 0.667 1; 0.333 0 0.667 1" fill="freeze" /><g transform="translate(188.591,167.5)"><animateTransform repeatCount="indefinite" type="translate" attributeName="transform" dur="0.683s" begin="0.2s" calcMode="spline" values="188.591 167.5; 188.591 345.5" keyTimes="0; 1" keySplines="0 0 1 1" fill="freeze" /><g transform="rotate(0)"><animateTransform repeatCount="indefinite" type="rotate" attributeName="transform" dur="0.683s" begin="0.2s" calcMode="spline" values="0; 360" keyTimes="0; 1" keySplines="0 0 1 1" fill="freeze" /><g transform="scale(0.265,0.265) translate(-145.341,-106)"><g id="Group 9" transform="matrix(1,0,0,1,145.341,106)"><path stroke-linejoin="miter" stroke-linecap="round" stroke-width="10" stroke-opacity="1" stroke="#3577a9" d="M0,-48.511L0,48.511" /></g><g id="Group 8" transform="matrix(1,0,0,1,145.309,75.201)"><path stroke-linejoin="miter" stroke-linecap="round" stroke-width="10" stroke-opacity="1" stroke="#3577a9" d="M-12.969,-5.422L0.054,5.422L12.969,-5.422" /></g><g id="Group 7" transform="matrix(1,0,0,1,145.309,136.519)"><path stroke-linejoin="miter" stroke-linecap="round" stroke-width="10" stroke-opacity="1" stroke="#3577a9" d="M-12.969,5.422L0.054,-5.422L12.969,5.422" /></g><g id="Group 6" transform="matrix(1,0,0,1,115.322,87.58)"><path stroke-linejoin="miter" stroke-linecap="round" stroke-width="10" stroke-opacity="1" stroke="#3577a9" d="M-8.039,11.023L8.039,5.667L5.624,-11.023" /></g><g id="Group 5" transform="matrix(1,0,0,1,115.503,123.664)"><path stroke-linejoin="miter" stroke-linecap="round" stroke-width="10" stroke-opacity="1" stroke="#3577a9" d="M5.294,11.147L7.961,-5.589L-7.961,-11.147" /></g><g id="Group 4" transform="matrix(1,0,0,1,176.201,87.58)"><path stroke-linejoin="miter" stroke-linecap="round" stroke-width="10" stroke-opacity="1" stroke="#3577a9" d="M8.039,11.023L-8.039,5.667L-5.624,-11.023" /></g><g id="Group 3" transform="matrix(1,0,0,1,175.513,123.664)"><path stroke-linejoin="miter" stroke-linecap="round" stroke-width="10" stroke-opacity="1" stroke="#3577a9" d="M-5.294,11.147L-7.961,-5.589L7.961,-11.147" /></g><g id="Group 2" transform="matrix(1,0,0,1,145.341,106)"><path stroke-linejoin="miter" stroke-linecap="round" stroke-width="10" stroke-opacity="1" stroke="#3577a9" d="M-42.011,-24.255L42.011,24.255" /></g><g id="Group 1" transform="matrix(1,0,0,1,145.341,106)"><path stroke-linejoin="miter" stroke-linecap="round" stroke-width="10" stroke-opacity="1" stroke="#3577a9" d="M-42.011,24.255L42.011,-24.255" /></g></g></g></g></g><g opacity="0" id="Layer 10"><animate repeatCount="indefinite" attributeName="opacity" dur="0.9s" begin="0.06666666666666667s" calcMode="spline" values="0; 1; 0" keyTimes="0; 0.111; 1" keySplines="0.333 0 0.667 1; 0.333 0 0.667 1" fill="freeze" /><g transform="translate(88.591,157.5)"><animateTransform repeatCount="indefinite" type="translate" attributeName="transform" dur="0.9s" begin="0.067s" calcMode="spline" values="88.591 157.5; 88.591 335.5" keyTimes="0; 1" keySplines="0 0 1 1" fill="freeze" /><g transform="rotate(0)"><animateTransform repeatCount="indefinite" type="rotate" attributeName="transform" dur="0.9s" begin="0.067s" calcMode="spline" values="0; 360" keyTimes="0; 1" keySplines="0 0 1 1" fill="freeze" /><g transform="scale(0.395,0.395) translate(-145.341,-106)"><g id="Group 9" transform="matrix(1,0,0,1,145.341,106)"><path stroke-linejoin="miter" stroke-linecap="round" stroke-width="10" stroke-opacity="1" stroke="#3577a9" d="M0,-48.511L0,48.511" /></g><g id="Group 8" transform="matrix(1,0,0,1,145.309,75.201)"><path stroke-linejoin="miter" stroke-linecap="round" stroke-width="10" stroke-opacity="1" stroke="#3577a9" d="M-12.969,-5.422L0.054,5.422L12.969,-5.422" /></g><g id="Group 7" transform="matrix(1,0,0,1,145.309,136.519)"><path stroke-linejoin="miter" stroke-linecap="round" stroke-width="10" stroke-opacity="1" stroke="#3577a9" d="M-12.969,5.422L0.054,-5.422L12.969,5.422" /></g><g id="Group 6" transform="matrix(1,0,0,1,115.322,87.58)"><path stroke-linejoin="miter" stroke-linecap="round" stroke-width="10" stroke-opacity="1" stroke="#3577a9" d="M-8.039,11.023L8.039,5.667L5.624,-11.023" /></g><g id="Group 5" transform="matrix(1,0,0,1,115.503,123.664)"><path stroke-linejoin="miter" stroke-linecap="round" stroke-width="10" stroke-opacity="1" stroke="#3577a9" d="M5.294,11.147L7.961,-5.589L-7.961,-11.147" /></g><g id="Group 4" transform="matrix(1,0,0,1,176.201,87.58)"><path stroke-linejoin="miter" stroke-linecap="round" stroke-width="10" stroke-opacity="1" stroke="#3577a9" d="M8.039,11.023L-8.039,5.667L-5.624,-11.023" /></g><g id="Group 3" transform="matrix(1,0,0,1,175.513,123.664)"><path stroke-linejoin="miter" stroke-linecap="round" stroke-width="10" stroke-opacity="1" stroke="#3577a9" d="M-5.294,11.147L-7.961,-5.589L7.961,-11.147" /></g><g id="Group 2" transform="matrix(1,0,0,1,145.341,106)"><path stroke-linejoin="miter" stroke-linecap="round" stroke-width="10" stroke-opacity="1" stroke="#3577a9" d="M-42.011,-24.255L42.011,24.255" /></g><g id="Group 1" transform="matrix(1,0,0,1,145.341,106)"><path stroke-linejoin="miter" stroke-linecap="round" stroke-width="10" stroke-opacity="1" stroke="#3577a9" d="M-42.011,24.255L42.011,-24.255" /></g></g></g></g></g><g opacity="0" id="Layer 11"><animate repeatCount="indefinite" attributeName="opacity" dur="0.6833333333333333s" begin="0.25s" calcMode="spline" values="0; 1; 0" keyTimes="0; 0.146; 1" keySplines="0.333 0 0.667 1; 0.333 0 0.667 1" fill="freeze" /><g transform="translate(208.591,157.5)"><animateTransform repeatCount="indefinite" type="translate" attributeName="transform" dur="0.683s" begin="0.25s" calcMode="spline" values="208.591 157.5; 208.591 335.5" keyTimes="0; 1" keySplines="0 0 1 1" fill="freeze" /><g transform="rotate(0)"><animateTransform repeatCount="indefinite" type="rotate" attributeName="transform" dur="0.683s" begin="0.25s" calcMode="spline" values="0; 360" keyTimes="0; 1" keySplines="0 0 1 1" fill="freeze" /><g transform="scale(0.475,0.475) translate(-145.341,-106)"><g id="Group 9" transform="matrix(1,0,0,1,145.341,106)"><path stroke-linejoin="miter" stroke-linecap="round" stroke-width="5" stroke-opacity="1" stroke="#58acd2" d="M0,-48.511L0,48.511" /></g><g id="Group 8" transform="matrix(1,0,0,1,145.309,75.201)"><path stroke-linejoin="miter" stroke-linecap="round" stroke-width="5" stroke-opacity="1" stroke="#58acd2" d="M-12.969,-5.422L0.054,5.422L12.969,-5.422" /></g><g id="Group 7" transform="matrix(1,0,0,1,145.309,136.519)"><path stroke-linejoin="miter" stroke-linecap="round" stroke-width="5" stroke-opacity="1" stroke="#58acd2" d="M-12.969,5.422L0.054,-5.422L12.969,5.422" /></g><g id="Group 6" transform="matrix(1,0,0,1,115.322,87.58)"><path stroke-linejoin="miter" stroke-linecap="round" stroke-width="5" stroke-opacity="1" stroke="#58acd2" d="M-8.039,11.023L8.039,5.667L5.624,-11.023" /></g><g id="Group 5" transform="matrix(1,0,0,1,115.503,123.664)"><path stroke-linejoin="miter" stroke-linecap="round" stroke-width="5" stroke-opacity="1" stroke="#58acd2" d="M5.294,11.147L7.961,-5.589L-7.961,-11.147" /></g><g id="Group 4" transform="matrix(1,0,0,1,176.201,87.58)"><path stroke-linejoin="miter" stroke-linecap="round" stroke-width="5" stroke-opacity="1" stroke="#58acd2" d="M8.039,11.023L-8.039,5.667L-5.624,-11.023" /></g><g id="Group 3" transform="matrix(1,0,0,1,175.513,123.664)"><path stroke-linejoin="miter" stroke-linecap="round" stroke-width="5" stroke-opacity="1" stroke="#58acd2" d="M-5.294,11.147L-7.961,-5.589L7.961,-11.147" /></g><g id="Group 2" transform="matrix(1,0,0,1,145.341,106)"><path stroke-linejoin="miter" stroke-linecap="round" stroke-width="5" stroke-opacity="1" stroke="#58acd2" d="M-42.011,-24.255L42.011,24.255" /></g><g id="Group 1" transform="matrix(1,0,0,1,145.341,106)"><path stroke-linejoin="miter" stroke-linecap="round" stroke-width="5" stroke-opacity="1" stroke="#58acd2" d="M-42.011,24.255L42.011,-24.255" /></g></g></g></g></g><g opacity="0" id="Layer 12"><animate repeatCount="indefinite" attributeName="opacity" dur="0.43333333333333335s" begin="0.55s" calcMode="spline" values="0; 1; 0" keyTimes="0; 0.231; 1" keySplines="0.333 0 0.667 1; 0.333 0 0.667 1" fill="freeze" /><g transform="translate(168.591,157.5)"><animateTransform repeatCount="indefinite" type="translate" attributeName="transform" dur="0.433s" begin="0.55s" calcMode="spline" values="168.591 157.5; 168.591 335.5" keyTimes="0; 1" keySplines="0 0 1 1" fill="freeze" /><g transform="rotate(0)"><animateTransform repeatCount="indefinite" type="rotate" attributeName="transform" dur="0.433s" begin="0.55s" calcMode="spline" values="0; 360" keyTimes="0; 1" keySplines="0 0 1 1" fill="freeze" /><g transform="scale(0.475,0.475) translate(-145.341,-106)"><g id="Group 9" transform="matrix(1,0,0,1,145.341,106)"><path stroke-linejoin="miter" stroke-linecap="round" stroke-width="10" stroke-opacity="1" stroke="#58acd2" d="M0,-48.511L0,48.511" /></g><g id="Group 8" transform="matrix(1,0,0,1,145.309,75.201)"><path stroke-linejoin="miter" stroke-linecap="round" stroke-width="10" stroke-opacity="1" stroke="#58acd2" d="M-12.969,-5.422L0.054,5.422L12.969,-5.422" /></g><g id="Group 7" transform="matrix(1,0,0,1,145.309,136.519)"><path stroke-linejoin="miter" stroke-linecap="round" stroke-width="10" stroke-opacity="1" stroke="#58acd2" d="M-12.969,5.422L0.054,-5.422L12.969,5.422" /></g><g id="Group 6" transform="matrix(1,0,0,1,115.322,87.58)"><path stroke-linejoin="miter" stroke-linecap="round" stroke-width="10" stroke-opacity="1" stroke="#58acd2" d="M-8.039,11.023L8.039,5.667L5.624,-11.023" /></g><g id="Group 5" transform="matrix(1,0,0,1,115.503,123.664)"><path stroke-linejoin="miter" stroke-linecap="round" stroke-width="10" stroke-opacity="1" stroke="#58acd2" d="M5.294,11.147L7.961,-5.589L-7.961,-11.147" /></g><g id="Group 4" transform="matrix(1,0,0,1,176.201,87.58)"><path stroke-linejoin="miter" stroke-linecap="round" stroke-width="10" stroke-opacity="1" stroke="#58acd2" d="M8.039,11.023L-8.039,5.667L-5.624,-11.023" /></g><g id="Group 3" transform="matrix(1,0,0,1,175.513,123.664)"><path stroke-linejoin="miter" stroke-linecap="round" stroke-width="10" stroke-opacity="1" stroke="#58acd2" d="M-5.294,11.147L-7.961,-5.589L7.961,-11.147" /></g><g id="Group 2" transform="matrix(1,0,0,1,145.341,106)"><path stroke-linejoin="miter" stroke-linecap="round" stroke-width="10" stroke-opacity="1" stroke="#58acd2" d="M-42.011,-24.255L42.011,24.255" /></g><g id="Group 1" transform="matrix(1,0,0,1,145.341,106)"><path stroke-linejoin="miter" stroke-linecap="round" stroke-width="10" stroke-opacity="1" stroke="#58acd2" d="M-42.011,24.255L42.011,-24.255" /></g></g></g></g></g><g opacity="0" id="Layer 13"><animate repeatCount="indefinite" attributeName="opacity" dur="0.6166666666666667s" begin="0.35s" calcMode="spline" values="0; 1; 0" keyTimes="0; 0.162; 1" keySplines="0.333 0 0.667 1; 0.333 0 0.667 1" fill="freeze" /><g transform="translate(158.591,167.5)"><animateTransform repeatCount="indefinite" type="translate" attributeName="transform" dur="0.617s" begin="0.35s" calcMode="spline" values="158.591 167.5; 158.591 345.5" keyTimes="0; 1" keySplines="0 0 1 1" fill="freeze" /><g transform="rotate(0)"><animateTransform repeatCount="indefinite" type="rotate" attributeName="transform" dur="0.617s" begin="0.35s" calcMode="spline" values="0; 360" keyTimes="0; 1" keySplines="0 0 1 1" fill="freeze" /><g transform="scale(0.475,0.475) translate(-145.341,-106)"><g id="Group 9" transform="matrix(1,0,0,1,145.341,106)"><path stroke-linejoin="miter" stroke-linecap="round" stroke-width="5" stroke-opacity="1" stroke="#58acd2" d="M0,-48.511L0,48.511" /></g><g id="Group 8" transform="matrix(1,0,0,1,145.309,75.201)"><path stroke-linejoin="miter" stroke-linecap="round" stroke-width="5" stroke-opacity="1" stroke="#58acd2" d="M-12.969,-5.422L0.054,5.422L12.969,-5.422" /></g><g id="Group 7" transform="matrix(1,0,0,1,145.309,136.519)"><path stroke-linejoin="miter" stroke-linecap="round" stroke-width="5" stroke-opacity="1" stroke="#58acd2" d="M-12.969,5.422L0.054,-5.422L12.969,5.422" /></g><g id="Group 6" transform="matrix(1,0,0,1,115.322,87.58)"><path stroke-linejoin="miter" stroke-linecap="round" stroke-width="5" stroke-opacity="1" stroke="#58acd2" d="M-8.039,11.023L8.039,5.667L5.624,-11.023" /></g><g id="Group 5" transform="matrix(1,0,0,1,115.503,123.664)"><path stroke-linejoin="miter" stroke-linecap="round" stroke-width="5" stroke-opacity="1" stroke="#58acd2" d="M5.294,11.147L7.961,-5.589L-7.961,-11.147" /></g><g id="Group 4" transform="matrix(1,0,0,1,176.201,87.58)"><path stroke-linejoin="miter" stroke-linecap="round" stroke-width="5" stroke-opacity="1" stroke="#58acd2" d="M8.039,11.023L-8.039,5.667L-5.624,-11.023" /></g><g id="Group 3" transform="matrix(1,0,0,1,175.513,123.664)"><path stroke-linejoin="miter" stroke-linecap="round" stroke-width="5" stroke-opacity="1" stroke="#58acd2" d="M-5.294,11.147L-7.961,-5.589L7.961,-11.147" /></g><g id="Group 2" transform="matrix(1,0,0,1,145.341,106)"><path stroke-linejoin="miter" stroke-linecap="round" stroke-width="5" stroke-opacity="1" stroke="#58acd2" d="M-42.011,-24.255L42.011,24.255" /></g><g id="Group 1" transform="matrix(1,0,0,1,145.341,106)"><path stroke-linejoin="miter" stroke-linecap="round" stroke-width="5" stroke-opacity="1" stroke="#58acd2" d="M-42.011,24.255L42.011,-24.255" /></g></g></g></g></g><g id="mini cloud"><g transform="translate(45.336,79.654)"><animateTransform repeatCount="indefinite" type="translate" attributeName="transform" dur="0.833s" begin="0s" calcMode="spline" values="45.336 79.654; 48.336 77.154; 49.336 73.654; 46.336 78.154; 49.836 75.154; 47.336 78.654" keyTimes="0; 0.2; 0.4; 0.6; 0.8; 1" keySplines="0.167 0.167 0.667 1; 0.333 0 0.667 1; 0.333 0 0.667 1; 0.333 0 0.667 1; 0.333 0 0.833 0.833" fill="freeze" /><g transform="scale(-1.35,1.35) translate(-41,11)"><g id="Group 1"><path fill="url(#null)" d="M42.8,-10.369C42.018,-10.777,41.524,-11.58,41.524,-12.462L41.524,-12.477C41.524,-29.111,28.038,-42.596,11.404,-42.596C-2.546,-42.596,-14.274,-33.111,-17.697,-20.239C-18.753,-16.268,-22.415,-13.549,-26.524,-13.549L-29.827,-13.549C-45.331,-13.549,-57.899,-0.981,-57.899,14.523L-57.899,14.524C-57.899,30.028,-45.331,42.596,-29.827,42.596L29.827,42.596C45.331,42.596,57.899,30.028,57.899,14.524L57.899,14.523C57.899,3.701,51.772,-5.684,42.8,-10.369Z" /></g></g></g></g><g id="cloud"><g transform="translate(247.214,172.783)"><animateTransform repeatCount="indefinite" type="translate" attributeName="transform" dur="0.833s" begin="0s" calcMode="spline" values="247.214 172.783; 250.214 169.283; 247.714 174.783; 251.214 171.283; 248.214 174.283; 250.214 171.783" keyTimes="0; 0.2; 0.4; 0.6; 0.8; 1" keySplines="0.167 0.167 0.667 1; 0.333 0 0.667 1; 0.333 0 0.667 1; 0.333 0 0.667 1; 0.333 0 0.833 0.833" fill="freeze" /><g transform="scale(-1.76,1.76) translate(48,-35)"><g id="Group 1"><path fill="url(#null)" d="M32.655,-18.466L32.655,-18.466C29.932,-18.466,27.453,-20.097,26.442,-22.625C21.64,-34.629,9.909,-43.112,-3.81,-43.112C-16.242,-43.112,-27.042,-36.147,-32.532,-25.907C-34.474,-22.285,-39.077,-18.075,-42.95,-16.701C-54.892,-12.465,-63.444,-1.071,-63.444,12.323L-63.444,12.323C-63.444,29.327,-49.659,43.112,-32.655,43.112L32.655,43.112C49.659,43.112,63.444,29.327,63.444,12.323L63.444,12.323C63.444,-4.681,49.659,-18.466,32.655,-18.466Z" /></g></g></g></g></svg>