<?xml version="1.0" encoding="utf-8"?><svg fill="none" viewBox="0 0 88 88" xmlns="http://www.w3.org/2000/svg"><defs /><g transform="matrix(0.17,0,0,0.17,44,36)" id="Null 803"><g transform="matrix(1,0,0,1,-180,-20)" visibility="hidden" id="Rain 2"><animate repeatCount="indefinite" begin="0.917s" calcMode="discrete" fill="freeze" dur="2.583s" values="visible; visible" keyTimes="0; 1" attributeName="visibility" /><g id="Shape 1"><path stroke-linejoin="bevel" stroke-linecap="round" stroke-width="10" stroke-opacity="1" stroke="#bbeaff" d="M125,62L81,187" /></g></g></g><g transform="matrix(0.17,0,0,0.17,44,36)" id="Null 803"><g transform="matrix(1,0,0,1,-250,-20)" visibility="hidden" id="Rain 4"><animate repeatCount="indefinite" begin="1.125s" calcMode="discrete" fill="freeze" dur="2.375s" values="visible; visible" keyTimes="0; 1" attributeName="visibility" /><g id="Shape 1"><path stroke-linejoin="bevel" stroke-linecap="round" stroke-width="10" stroke-opacity="1" stroke="#bbeaff" d="M125,62L61,231" /></g></g></g><g transform="matrix(0.17,0,0,0.17,44,36)" id="Null 803"><g transform="matrix(1,0,0,1,0,-20)" visibility="hidden" id="Rain 3"><animate repeatCount="indefinite" begin="0.625s" calcMode="discrete" fill="freeze" dur="2.875s" values="visible; visible" keyTimes="0; 1" attributeName="visibility" /><g id="Shape 1"><path stroke-linejoin="bevel" stroke-linecap="round" stroke-width="12" stroke-opacity="1" stroke="#aee6ff" d="M125,62L68,235" /></g></g></g><g transform="matrix(0.17,0,0,0.17,44,36)" id="Null 803"><g transform="matrix(2.48,0,0,2.48,-10.066,15.52)" id="thunder"><g id="Thunder" transform="matrix(1,0,0,1,0,-13)"><path fill="#ffc021" fill-opacity="1" d="M-10.226,46.131L-23.157,71.685L7.274,71.631L-8.226,108.131L31.274,56.631L6.874,56.831L16.498,46.642L-10.226,46.131Z" /></g></g></g><g transform="matrix(0.17,0,0,0.17,44,36)" id="Null 803"><g transform="matrix(1,0,0,1,0,0)" id="cloud"><g id="Rectangle 1" fill="#dbdbdb" fill-opacity="1"><rect ry="108" rx="108" height="171" width="422" y="0" x="0" /></g><g id="Rectangle 2" transform="matrix(1,0,0,1,0,-66)" fill="#dbdbdb" fill-opacity="1"><rect ry="108" rx="108" height="200" width="200" y="0" x="0" /></g></g></g><g transform="matrix(0.17,0,0,0.17,44,36)" opacity="0" id="Null 803" /></svg>